<svg width="206" height="39" viewBox="0 0 206 39" fill="none" xmlns="http://www.w3.org/2000/svg">
<g filter="url(#filter0_d)">
<path d="M51.0967 28.9931V7.82352H53.9577V26.6211H63.8758V28.9931H51.0967Z" fill="#E32040"/>
<path d="M82.1994 21.0174C82.1994 23.6463 81.4788 25.6823 80.0377 27.1252C78.6178 28.5681 76.6893 29.2896 74.2522 29.2896C72.7475 29.2896 71.4018 28.9733 70.215 28.3408C69.0494 27.6885 68.1275 26.7496 67.4493 25.5241C66.7712 24.2789 66.4321 22.7766 66.4321 21.0174C66.4321 18.3885 67.142 16.3625 68.5619 14.9393C69.9819 13.5162 71.9104 12.8046 74.3475 12.8046C75.8946 12.8046 77.2509 13.1307 78.4165 13.783C79.6033 14.4155 80.5252 15.3445 81.1821 16.57C81.8603 17.7758 82.1994 19.2582 82.1994 21.0174ZM69.3249 21.0174C69.3249 22.8952 69.7169 24.3876 70.5011 25.4945C71.3064 26.5816 72.5779 27.1252 74.3157 27.1252C76.0323 27.1252 77.2933 26.5816 78.0986 25.4945C78.9039 24.3876 79.3066 22.8952 79.3066 21.0174C79.3066 19.1397 78.9039 17.6671 78.0986 16.5997C77.2933 15.5323 76.0217 14.9986 74.284 14.9986C72.5462 14.9986 71.2852 15.5323 70.5011 16.5997C69.7169 17.6671 69.3249 19.1397 69.3249 21.0174Z" fill="#E32040"/>
<path d="M89.7632 28.9931L83.31 13.1011H86.2982L89.9221 22.4703C90.0916 22.9051 90.2718 23.3894 90.4625 23.9231C90.6532 24.4568 90.8228 24.9707 90.9711 25.4648C91.1195 25.9392 91.2254 26.3444 91.289 26.6804H91.4162C91.5009 26.3444 91.6175 25.9293 91.7659 25.4352C91.9354 24.941 92.1155 24.4271 92.3063 23.8934C92.5182 23.3597 92.6983 22.8853 92.8467 22.4703L96.4706 13.1011H99.4588L92.9738 28.9931H89.7632Z" fill="#E32040"/>
<path d="M108.735 12.8046C110.197 12.8046 111.448 13.1011 112.486 13.6941C113.546 14.2871 114.351 15.1271 114.902 16.2143C115.474 17.2816 115.761 18.5368 115.761 19.9797V21.5511H104.094C104.136 23.3498 104.624 24.7236 105.556 25.6724C106.51 26.6014 107.834 27.0659 109.53 27.0659C110.611 27.0659 111.564 26.9769 112.391 26.799C113.239 26.6014 114.107 26.3247 114.998 25.9689V28.2519C114.129 28.6076 113.27 28.8646 112.423 29.0227C111.575 29.2006 110.568 29.2896 109.403 29.2896C107.792 29.2896 106.362 28.9832 105.111 28.3705C103.882 27.7577 102.918 26.8485 102.218 25.6427C101.54 24.4172 101.201 22.9249 101.201 21.1657C101.201 19.4263 101.508 17.9339 102.123 16.6886C102.759 15.4434 103.638 14.4847 104.762 13.8127C105.906 13.1406 107.23 12.8046 108.735 12.8046ZM108.703 14.9393C107.368 14.9393 106.309 15.3445 105.524 16.155C104.762 16.9456 104.306 18.0525 104.158 19.4757H112.836C112.815 18.1316 112.476 17.0444 111.819 16.2143C111.162 15.3643 110.123 14.9393 108.703 14.9393Z" fill="#E32040"/>
<path d="M118.668 22.2034V19.8908H126.361V22.2034H118.668Z" fill="#E32040"/>
<path d="M147.318 28.9931H143.948L135.906 18.8827L133.585 20.7802V28.9931H130.724V7.82352H133.585V18.2601C134.221 17.588 134.867 16.916 135.524 16.2439C136.181 15.5719 136.838 14.8998 137.495 14.2278L143.63 7.82352H146.968L137.972 17.0444L147.318 28.9931Z" fill="#E32040"/>
<path d="M156.478 12.8342C158.555 12.8342 160.091 13.2592 161.087 14.1092C162.083 14.9591 162.581 16.3131 162.581 18.1711V28.9931H160.547L160.006 26.7397H159.879C159.137 27.6095 158.353 28.2519 157.527 28.6669C156.721 29.082 155.598 29.2896 154.157 29.2896C152.61 29.2896 151.328 28.914 150.311 28.1629C149.293 27.392 148.785 26.1962 148.785 24.5753C148.785 22.9941 149.452 21.7784 150.787 20.9285C152.123 20.0588 154.178 19.5844 156.954 19.5053L159.847 19.4164V18.4676C159.847 17.1433 159.54 16.2241 158.925 15.7102C158.311 15.1963 157.442 14.9393 156.319 14.9393C155.429 14.9393 154.581 15.0678 153.776 15.3248C152.97 15.562 152.218 15.8387 151.519 16.155L150.66 14.1981C151.402 13.8226 152.281 13.5063 153.299 13.2493C154.316 12.9726 155.376 12.8342 156.478 12.8342ZM157.304 21.3139C155.185 21.393 153.712 21.7093 152.885 22.2627C152.08 22.8162 151.678 23.5969 151.678 24.605C151.678 25.4945 151.964 26.1468 152.536 26.5618C153.129 26.9769 153.882 27.1845 154.793 27.1845C156.234 27.1845 157.431 26.8188 158.385 26.0875C159.339 25.3363 159.815 24.1899 159.815 22.6481V21.225L157.304 21.3139Z" fill="#E32040"/>
<path d="M30.9227 15.129C30.6571 15.4557 30.1485 15.6583 29.5955 15.6583H28.9094C28.0418 15.6583 27.3464 15.15 27.2921 14.4742C27.069 11.66 26.1497 8.4474 24.8576 5.91115H26.7842C29.067 8.40478 30.7114 11.707 31.0909 14.5675C31.1181 14.7701 31.0611 14.9585 30.9227 15.129ZM21.684 15.1562C21.3966 15.4712 20.9092 15.6583 20.3807 15.6583H19.6939C19.1661 15.6583 18.6787 15.4712 18.3912 15.1562C18.2184 14.9672 18.1349 14.7528 18.1416 14.5212C18.2164 11.6779 18.535 8.41713 18.9787 5.91115H21.0959C21.5403 8.41713 21.8582 11.6779 21.9331 14.5199C21.9403 14.7528 21.8562 14.9672 21.684 15.1562ZM12.7831 14.4742C12.7288 15.15 12.0328 15.6583 11.1659 15.6583H10.4791C9.92679 15.6583 9.41883 15.4557 9.15194 15.129C9.01418 14.9585 8.95788 14.7701 8.98503 14.5687C9.36319 11.707 11.0083 8.40478 13.2905 5.91115H15.217C13.9256 8.4474 13.0057 11.66 12.7831 14.4742ZM36.054 14.5088C35.5162 11.6013 33.1883 8.15152 29.7134 5.49359C28.7922 5.49359 27.8703 5.49359 26.9491 5.49359C26.0272 5.49359 25.106 5.49359 24.1841 5.49359C23.2616 5.49359 22.3417 5.49359 21.4205 5.49359C20.4986 5.49359 19.5774 5.49359 18.6548 5.49359C17.7336 5.49359 16.8131 5.49359 15.8905 5.49359C14.9693 5.49359 14.0474 5.49359 13.1262 5.49359C12.205 5.49359 11.2831 5.49359 10.3612 5.49359C6.88631 8.15152 4.55844 11.6013 4.02067 14.5088C3.84915 15.41 4.79685 16.0759 5.87237 16.0759C6.10019 16.0759 6.32934 16.0759 6.55782 16.0759C7.63732 16.0759 8.47509 15.41 8.59695 14.5088C8.47443 15.41 9.40492 16.0759 10.4791 16.0759C10.7076 16.0759 10.9368 16.0759 11.1659 16.0759C12.2434 16.0759 13.101 15.41 13.1732 14.5088C13.0991 15.41 14.011 16.0759 15.0865 16.0759C15.3157 16.0759 15.5441 16.0759 15.7733 16.0759C16.8501 16.0759 17.7263 15.41 17.7495 14.5088C17.7243 15.41 18.6171 16.0759 19.6939 16.0759C19.9237 16.0759 20.1522 16.0759 20.3807 16.0759C21.4575 16.0759 22.351 15.41 22.3251 14.5088C22.349 15.41 23.2251 16.0759 24.302 16.0759C24.5305 16.0759 24.7596 16.0759 24.9888 16.0759C26.0643 16.0759 26.9749 15.41 26.9021 14.5088C26.9742 15.41 27.8312 16.0759 28.9094 16.0759C29.1385 16.0759 29.367 16.0759 29.5955 16.0759C30.6704 16.0759 31.6002 15.41 31.4783 14.5088C31.5995 15.41 32.4373 16.0759 33.5168 16.0759C33.746 16.0759 33.9744 16.0759 34.2036 16.0759C35.2778 16.0759 36.2261 15.41 36.054 14.5088Z" fill="#E32040"/>
<path d="M7.04508 16.4286H6.95898V29.095H33.1153V17.3706V16.4286H33.0299C32.851 16.4286 32.6775 16.4138 32.5113 16.3848V27.9733H7.56363V16.3848C7.39608 16.4138 7.2239 16.4286 7.04508 16.4286Z" fill="#E32040"/>
<path d="M30.8245 24.9003H9.2498V17.7085H30.8245V24.9003ZM8.45044 16.9629V25.6458H31.6239V16.9629H8.45044Z" fill="#E32040"/>
<path d="M6.95581 31H33.1188V29.4311H6.95581V31Z" fill="#E32040"/>
<path d="M7.88354 26.7923H32.1908V26.0794H7.88354V26.7923Z" fill="#E32040"/>
<path d="M22.2925 18.3539C22.2031 18.2489 22.0965 18.1878 21.9813 18.1878C21.8667 18.1878 21.7601 18.2489 21.6707 18.3539C21.766 18.3743 21.8713 18.3854 21.9813 18.3854C22.0925 18.3854 22.1972 18.3743 22.2925 18.3539Z" fill="#E32040"/>
<path d="M21.7595 20.5672C21.8284 20.5672 21.884 20.6191 21.884 20.6833C21.884 20.7476 21.8284 20.7994 21.7595 20.7994C21.6899 20.7994 21.6343 20.7476 21.6343 20.6833C21.6343 20.6191 21.6899 20.5672 21.7595 20.5672ZM21.7595 20.0872C21.8284 20.0872 21.884 20.1398 21.884 20.204C21.884 20.2682 21.8284 20.3207 21.7595 20.3207C21.6899 20.3207 21.6343 20.2682 21.6343 20.204C21.6343 20.1398 21.6899 20.0872 21.7595 20.0872ZM21.7595 19.6079C21.8284 19.6079 21.884 19.6598 21.884 19.724C21.884 19.7883 21.8284 19.8408 21.7595 19.8408C21.6899 19.8408 21.6343 19.7883 21.6343 19.724C21.6343 19.6598 21.6899 19.6079 21.7595 19.6079ZM22.2045 20.5672C22.2734 20.5672 22.329 20.6191 22.329 20.6833C22.329 20.7476 22.2734 20.7994 22.2045 20.7994C22.1357 20.7994 22.08 20.7476 22.08 20.6833C22.08 20.6191 22.1357 20.5672 22.2045 20.5672ZM22.2045 20.0872C22.2734 20.0872 22.329 20.1398 22.329 20.204C22.329 20.2682 22.2734 20.3207 22.2045 20.3207C22.1357 20.3207 22.08 20.2682 22.08 20.204C22.08 20.1398 22.1357 20.0872 22.2045 20.0872ZM22.2045 19.6079C22.2734 19.6079 22.329 19.6598 22.329 19.724C22.329 19.7883 22.2734 19.8408 22.2045 19.8408C22.1357 19.8408 22.08 19.7883 22.08 19.724C22.08 19.6598 22.1357 19.6079 22.2045 19.6079ZM21.2727 20.8328C21.2727 20.9032 21.333 20.96 21.4078 20.9613V23.4006C21.4078 23.5124 21.5058 23.6044 21.6257 23.6044H22.3376C22.4575 23.6044 22.5555 23.5124 22.5555 23.4006V20.9613C22.6304 20.96 22.6906 20.9032 22.6906 20.8328C22.6906 20.7624 22.6304 20.7056 22.5555 20.7049V20.4325C22.6304 20.4319 22.6906 20.3751 22.6906 20.3047C22.6906 20.2349 22.6304 20.1774 22.5555 20.1768V19.9044C22.6304 19.9038 22.6906 19.847 22.6906 19.7765C22.6906 19.7068 22.6304 19.6499 22.5555 19.6487V19.2317C22.5555 18.8939 22.4668 18.5937 22.3304 18.4028C22.2257 18.4275 22.1072 18.4423 21.9813 18.4423C21.8562 18.4423 21.7376 18.4275 21.633 18.4028C21.4966 18.5937 21.4078 18.8939 21.4078 19.2317V19.6487C21.333 19.6499 21.2727 19.7068 21.2727 19.7765C21.2727 19.847 21.333 19.9038 21.4078 19.9044V20.1768C21.333 20.1774 21.2727 20.2349 21.2727 20.3047C21.2727 20.3751 21.333 20.4319 21.4078 20.4325V20.7049C21.333 20.7056 21.2727 20.7624 21.2727 20.8328Z" fill="#E32040"/>
<path d="M21.6256 23.8996C21.5388 23.8996 21.4614 23.8632 21.4077 23.807V24.0788C21.4077 24.1912 21.5057 24.282 21.6256 24.282H21.7455C21.7826 24.3709 21.8746 24.4339 21.9812 24.4339C22.0892 24.4339 22.1806 24.3709 22.2177 24.282H22.3375C22.4574 24.282 22.5554 24.1912 22.5554 24.0788V23.807C22.5018 23.8632 22.4243 23.8996 22.3375 23.8996H21.6256Z" fill="#E32040"/>
<path d="M21.6256 23.6717C21.5388 23.6717 21.4614 23.6359 21.4077 23.579V23.7285C21.4614 23.7853 21.5388 23.8206 21.6256 23.8206H22.3375C22.4243 23.8206 22.5018 23.7853 22.5554 23.7285V23.579C22.5018 23.6359 22.4243 23.6717 22.3375 23.6717H21.6256Z" fill="#E32040"/>
<path d="M10.1949 20.1996C10.2127 20.0526 10.2598 19.9161 10.3286 19.792C10.3399 19.8976 10.3637 20.0032 10.3955 20.1076C10.171 20.5746 10.6214 21.1299 10.983 21.4258C11.0227 21.532 11.0558 21.6407 11.0777 21.7519C11.1048 21.8866 11.1101 22.0274 11.1015 22.1688C10.9969 21.9971 10.8803 21.8316 10.7664 21.6654C10.4664 21.2281 10.13 20.742 10.1949 20.1996ZM11.8062 19.0804C12.2214 19.1273 12.5393 19.367 12.8267 19.6412C12.8492 19.7184 12.8704 19.7963 12.8936 19.8723C12.6949 19.7005 12.4678 19.5529 12.2234 19.4646C12.0532 19.3614 11.8717 19.2688 11.679 19.228C11.2287 19.1323 10.7366 19.3423 10.5869 19.7617C10.573 19.8 10.5644 19.8383 10.5598 19.8766C10.5445 19.8926 10.53 19.9093 10.5161 19.926C10.4909 19.8099 10.4777 19.6925 10.4816 19.5758C10.7942 19.2212 11.3088 19.0248 11.8062 19.0804ZM10.5147 19.3392C10.6227 18.913 11.0604 18.6949 11.5214 18.6857C11.9134 18.6783 12.2962 18.7796 12.5499 19.0631C12.6347 19.1588 12.6936 19.2675 12.74 19.383C12.4784 19.1699 12.185 19.0025 11.8108 18.9605C11.3234 18.9049 10.8479 19.0699 10.5068 19.3738C10.5094 19.3627 10.5121 19.3509 10.5147 19.3392ZM10.7604 19.7018C10.9134 19.4238 11.3353 19.2892 11.6737 19.3787C11.3598 19.3948 11.022 19.5134 10.7604 19.7018ZM10.6406 20.3034C10.6704 20.3689 10.7048 20.4319 10.7406 20.4918C10.7796 20.5573 10.8247 20.6184 10.875 20.6777C10.8796 20.7352 10.8902 20.7932 10.9061 20.8501C10.8128 20.6672 10.7174 20.4856 10.6406 20.3034ZM10.5657 20.1076C10.5677 20.1039 10.569 20.1014 10.571 20.0977C10.5856 20.1644 10.6088 20.2305 10.6373 20.2948C10.6247 20.2645 10.6114 20.2342 10.5995 20.204C10.5876 20.1718 10.5763 20.1397 10.5657 20.1076ZM10.7472 20.9063C10.8028 21.0193 10.8591 21.133 10.9101 21.2491C10.8671 21.2071 10.8253 21.1626 10.7849 21.1138C10.6108 20.9019 10.471 20.6357 10.4882 20.3627C10.5677 20.5523 10.6624 20.7358 10.7472 20.9063ZM11.0836 20.1212C10.9816 20.22 10.9214 20.3287 10.8929 20.443C10.8187 20.33 10.7585 20.2095 10.7227 20.081C10.7081 20.0292 10.7015 19.9804 10.7015 19.9334C10.934 19.7012 11.3114 19.5517 11.5975 19.4942C11.7154 19.4708 11.8307 19.4677 11.9439 19.48C12.1227 19.564 12.2883 19.6721 12.4532 19.7821C11.9625 19.6925 11.3995 19.8142 11.0836 20.1212ZM11.5638 21.3282C11.7201 21.4844 11.8293 21.6444 11.8399 21.8538C11.7717 21.8118 11.7015 21.7717 11.6313 21.7327C11.5869 21.6691 11.5393 21.608 11.4916 21.5462C11.3393 21.3498 11.1605 21.1249 11.0757 20.8865C11.2379 21.0372 11.4148 21.1781 11.5638 21.3282ZM11.8201 22.0638C11.7909 21.9928 11.7558 21.9255 11.7154 21.86C11.7572 21.8841 11.7982 21.9082 11.838 21.9335C11.8386 21.9341 11.8393 21.9341 11.8393 21.9347C11.8366 21.9774 11.83 22.02 11.8201 22.0638ZM11.1744 21.4659C11.1545 21.4029 11.132 21.3399 11.1068 21.2781C11.1128 21.288 11.1194 21.2979 11.126 21.3072C11.1823 21.3912 11.2452 21.4721 11.3075 21.5518C11.2618 21.524 11.2174 21.4956 11.1744 21.4659ZM13.2353 20.0508C13.1916 20.0347 13.1492 20.0168 13.1075 19.9976C13.0916 19.9575 13.0764 19.9167 13.0625 19.876C13.1201 19.9346 13.1777 19.9933 13.2353 20.0508ZM10.9843 22.2782C11.0154 22.3294 11.0439 22.3819 11.0717 22.4344C11.0585 22.516 11.0432 22.5957 11.026 22.6729C10.9836 22.8637 10.9147 23.0836 10.7929 23.2603L10.8803 23.3122C11.034 23.1417 11.128 22.9156 11.1836 22.6784C11.1843 22.6803 11.1856 22.6834 11.1869 22.6858C11.2545 22.8625 11.2505 23.0491 11.2969 23.23C11.3154 23.3048 11.4724 23.2689 11.4532 23.1942C11.4128 23.0355 11.4161 22.8712 11.3664 22.7149C11.332 22.6068 11.2836 22.503 11.232 22.4011C11.2532 22.2232 11.2571 22.049 11.2525 21.8995C11.2492 21.7914 11.2326 21.6864 11.2075 21.5826C11.2783 21.6253 11.3518 21.6654 11.4254 21.7049C11.4995 21.8025 11.5691 21.9026 11.6254 22.0107C11.6764 22.1095 11.7095 22.2145 11.7326 22.322C11.6684 22.4727 11.5876 22.6191 11.526 22.7476C11.483 22.8366 11.5976 22.8569 11.6379 22.7729C11.6777 22.6908 11.7227 22.6055 11.7658 22.5178C11.7843 22.6655 11.7949 22.8137 11.8148 22.957C11.8254 23.028 11.9843 23.0015 11.9737 22.9292C11.9419 22.7068 11.93 22.4808 11.8797 22.2609C11.9115 22.1787 11.936 22.0953 11.9499 22.0107C12.2009 22.1973 12.3943 22.4301 12.5711 22.6821C12.5956 22.7167 12.7433 22.76 12.6949 22.6914C12.5393 22.4703 12.3724 22.2621 12.1618 22.083C12.0976 22.0292 12.03 21.9786 11.9598 21.9316C11.9691 21.8112 11.9525 21.6907 11.8962 21.5715C11.7843 21.3362 11.5803 21.162 11.3856 20.986C11.2611 20.8742 11.1366 20.7537 11.0273 20.6228C11.0273 20.5258 11.0485 20.4269 11.0989 20.3281C11.2677 19.9946 11.7161 19.8784 12.079 19.8723C12.4406 19.8661 12.8459 19.9785 13.0645 20.2595C13.0691 20.2676 13.0744 20.2756 13.0797 20.2824C12.9949 20.3534 12.9824 20.4455 13.032 20.5165C13.0685 20.5684 13.1526 20.6277 13.2387 20.6438C13.244 20.6716 13.2552 20.6987 13.2724 20.7241L13.4267 20.9427C13.5214 20.9155 13.6201 20.8723 13.7168 20.8136C13.8128 20.7543 13.8943 20.6864 13.9585 20.6166L13.8049 20.3979C13.787 20.3726 13.7645 20.3528 13.7393 20.3374C13.7579 20.2571 13.7327 20.162 13.6963 20.1094C13.6473 20.0396 13.5526 20.0137 13.4512 20.0557C13.2896 19.905 13.1347 19.7432 12.9737 19.59C12.9426 19.4874 12.9102 19.3861 12.8678 19.2873C12.7247 18.9525 12.4201 18.7462 12.0592 18.6449C11.475 18.48 10.6955 18.6573 10.424 19.2064C10.3657 19.3237 10.3353 19.4442 10.3247 19.5659C10.2333 19.6795 10.1584 19.8068 10.1035 19.9445C9.88624 20.4906 10.1697 21.0403 10.4704 21.503C10.6392 21.763 10.8247 22.0126 10.9843 22.2782Z" fill="#E32040"/>
<path d="M13.9283 21.1139C13.8316 21.1725 13.7322 21.2158 13.6382 21.2429L13.7634 21.4208C13.8581 21.3943 13.9567 21.351 14.0534 21.2917C14.1494 21.2331 14.2316 21.1651 14.2958 21.0953L14.17 20.9168C14.1057 20.9872 14.0243 21.0552 13.9283 21.1139Z" fill="#E32040"/>
<path d="M13.7547 20.8674C13.6586 20.9267 13.5593 20.9699 13.4646 20.9971L13.5997 21.1886C13.6944 21.162 13.7951 21.1175 13.8898 21.0595C13.9845 21.002 14.0679 20.9328 14.1322 20.863L13.9971 20.6709C13.9328 20.7407 13.8507 20.8087 13.7547 20.8674Z" fill="#E32040"/>
<path d="M14.0909 21.3461C13.9949 21.4048 13.8956 21.448 13.8015 21.4752L13.9353 21.6655C14.03 21.6389 14.1293 21.5957 14.2254 21.537C14.3221 21.4777 14.4035 21.4097 14.4678 21.3399L14.3333 21.1491C14.2691 21.2195 14.1876 21.2868 14.0909 21.3461Z" fill="#E32040"/>
<path d="M15.1944 23.0701L15.3488 22.9755C15.36 22.9688 15.3699 22.9607 15.3792 22.9527C15.3872 23.0033 15.3646 23.0559 15.3156 23.0855C15.2673 23.1158 15.2064 23.1139 15.16 23.0874C15.1713 23.0824 15.1832 23.0769 15.1944 23.0701ZM15.7693 23.8125C15.8342 23.9602 15.8514 24.1269 15.7329 24.2554C15.6567 24.3382 15.4845 24.4407 15.3786 24.3462C15.2196 24.2048 15.2792 23.844 15.2892 23.6637C15.2971 23.5167 15.3421 23.3233 15.3203 23.1621C15.3322 23.1572 15.3441 23.1516 15.3554 23.1454C15.4772 23.3758 15.6633 23.5729 15.7693 23.8125ZM14.264 21.5907C14.1673 21.6494 14.0686 21.6926 13.9739 21.7198L14.1997 22.041C14.2381 22.096 14.2997 22.1281 14.3653 22.1349C14.3454 22.1929 14.3527 22.2584 14.3918 22.3134L14.8819 23.0101C14.9242 23.0701 14.9951 23.1034 15.068 23.1046C15.1176 23.1596 15.1931 23.1849 15.2666 23.1751C15.2759 23.256 15.2627 23.3443 15.2587 23.4197C15.2494 23.5772 15.2362 23.7347 15.2335 23.8928C15.2309 24.0386 15.2084 24.4358 15.4514 24.4339C15.6898 24.4315 15.8938 24.1652 15.8673 23.9589C15.8256 23.6334 15.5541 23.39 15.4031 23.1065C15.46 23.0447 15.4726 22.9552 15.4329 22.881C15.4607 22.818 15.456 22.7439 15.4136 22.6834L14.9236 21.9879C14.8852 21.9329 14.8236 21.9001 14.758 21.894C14.7779 21.8353 14.7699 21.7698 14.7315 21.7148L14.5057 21.3943C14.4421 21.4641 14.36 21.5314 14.264 21.5907Z" fill="#E32040"/>
<path d="M25.4728 21.8532C25.5079 21.8557 25.5396 21.8316 25.5423 21.7989C25.5456 21.7661 25.5191 21.7371 25.484 21.734C25.4489 21.7309 25.4178 21.7556 25.4145 21.7884C25.4118 21.8211 25.4377 21.8501 25.4728 21.8532Z" fill="#E32040"/>
<path d="M27.0589 20.7469C27.0801 20.7198 27.0735 20.6827 27.045 20.6629C27.0165 20.6438 26.9768 20.6493 26.9556 20.6759C26.9351 20.7025 26.9417 20.7401 26.9695 20.7599C26.998 20.7784 27.0384 20.7729 27.0589 20.7469Z" fill="#E32040"/>
<path d="M25.0157 24.3654C24.9899 24.3234 24.9773 24.274 24.9819 24.2215C24.9872 24.1665 25.0117 24.1183 25.0475 24.08C24.5879 23.9497 24.272 23.5334 24.3157 23.0695C24.3468 22.744 24.5488 22.4703 24.8316 22.3178C24.817 22.3091 24.8031 22.298 24.7912 22.2863C24.7886 22.2838 24.7866 22.2813 24.7839 22.2788C24.7799 22.2751 24.7766 22.2708 24.7733 22.2665C24.7329 22.2165 24.7184 22.1534 24.7329 22.0898L24.7435 22.0404L24.7554 21.9873L24.7614 21.9601C24.7535 21.944 24.7462 21.9286 24.7376 21.9132C24.7323 21.9045 24.7151 21.9113 24.6978 21.9206C24.68 21.9298 24.6641 21.9397 24.666 21.9502C24.6687 21.9688 24.672 21.9873 24.6766 22.0052C24.6687 22.0089 24.6614 22.0132 24.6541 22.0176C24.6409 22.0058 24.6276 21.9935 24.6131 21.9823C24.6044 21.9762 24.5879 21.986 24.572 21.9978C24.5554 22.0089 24.5415 22.0206 24.5468 22.0293C24.5548 22.0423 24.5627 22.0552 24.5713 22.067C24.417 22.1664 24.2806 22.2937 24.1819 22.4283L24.2071 22.5012C24.1018 22.6606 24.0329 22.8453 24.0144 23.0442C23.9554 23.6625 24.3919 24.2165 25.0157 24.3654Z" fill="#E32040"/>
<path d="M25.4887 21.6871C25.557 21.692 25.6086 21.7488 25.602 21.8137C25.5987 21.8514 25.5755 21.8835 25.5431 21.902L25.502 22.049L25.4093 22.041L25.3967 21.8915C25.3669 21.868 25.349 21.8316 25.353 21.7927C25.3589 21.7284 25.4199 21.6809 25.4887 21.6871ZM25.4457 21.3109C25.4603 21.3393 25.4887 21.3615 25.5252 21.3683L25.6179 21.3838C25.6053 21.4251 25.5636 21.4542 25.5166 21.4499C25.4636 21.4462 25.4245 21.4017 25.4285 21.3529C25.4305 21.3368 25.4364 21.3226 25.4457 21.3109ZM25.5331 21.2713C25.5669 21.2744 25.5954 21.2936 25.6099 21.3195L25.5371 21.3066C25.5192 21.3041 25.5053 21.2899 25.502 21.2738C25.5119 21.272 25.5225 21.2707 25.5331 21.2713ZM25.5649 20.9396C25.5676 20.9254 25.5782 20.9143 25.5914 20.9088L25.6245 21.0033C25.6437 21.0576 25.706 21.0879 25.7643 21.07L25.7775 21.0663L25.7311 21.2979C25.7272 21.3208 25.7033 21.3356 25.6795 21.3313H25.6775L25.6748 21.2812C25.6742 21.2553 25.647 21.2324 25.6152 21.2306L25.5086 21.2213L25.5649 20.9396ZM25.6715 20.8037L26.0027 20.7037C26.0153 20.7 26.0278 20.7024 26.0391 20.708C26.0325 20.7167 26.0265 20.7253 26.0225 20.7358L25.9735 20.863C25.9629 20.889 25.9656 20.9168 25.9768 20.9409L25.8616 20.9755C25.8636 20.9254 25.8258 20.8797 25.7715 20.8698L25.6417 20.8476C25.6391 20.8291 25.6517 20.8099 25.6715 20.8037ZM26.1033 20.8593C26.1106 20.8803 26.0974 20.9038 26.0749 20.9112L26.0417 20.9211C26.0338 20.9106 26.0311 20.8964 26.0364 20.8834L26.0762 20.7803L26.1033 20.8593ZM26.1662 20.8396L26.1285 20.7296C26.1325 20.7296 26.1371 20.7302 26.1417 20.7315L26.3954 20.8161C26.3921 20.8291 26.3927 20.8427 26.398 20.8556L26.4563 20.9915C26.4563 20.9928 26.457 20.9934 26.4576 20.9946L26.447 21.0212C26.4391 21.0422 26.4133 21.0533 26.3901 21.0459L26.1232 20.9569C26.1629 20.9316 26.1821 20.884 26.1662 20.8396ZM26.4735 20.8427C26.4934 20.8519 26.5033 20.8742 26.4961 20.8939L26.4848 20.9236C26.4808 20.918 26.4775 20.9125 26.4749 20.9063C26.4656 20.8853 26.4663 20.863 26.4735 20.8427ZM25.7914 20.9971L25.7437 21.0113C25.7205 21.0181 25.6954 21.0057 25.6874 20.9841L25.6636 20.9149L25.7589 20.931C25.7828 20.9353 25.7993 20.9569 25.7947 20.9798L25.7914 20.9971ZM26.5285 20.7895C26.5775 20.771 26.6338 20.7932 26.6537 20.8396C26.6729 20.8859 26.649 20.9384 26.5994 20.9563C26.5808 20.9631 26.5603 20.9643 26.5411 20.96L26.559 20.9143C26.5762 20.8698 26.557 20.821 26.5172 20.7951C26.5206 20.7932 26.5245 20.7914 26.5285 20.7895ZM26.9623 20.6042C27.0007 20.5906 27.0418 20.595 27.0735 20.6135L27.2325 20.5814L27.2676 20.6623L27.1298 20.7401C27.1206 20.7753 27.0941 20.8062 27.055 20.821C26.9908 20.8445 26.9179 20.8155 26.8921 20.7556C26.8669 20.6957 26.898 20.6277 26.9623 20.6042ZM29.416 19.7271C29.4557 19.7123 29.5008 19.7302 29.5167 19.7673C29.5319 19.8043 29.5127 19.8463 29.4729 19.8611C29.4339 19.8754 29.3888 19.8574 29.3729 19.8204C29.357 19.7833 29.3763 19.7419 29.416 19.7271ZM25.251 24.3172C25.2086 24.3135 25.1775 24.2783 25.1808 24.2387C25.1848 24.1986 25.2225 24.1702 25.2649 24.1733C25.3073 24.177 25.3391 24.2116 25.3351 24.2517C25.3311 24.2912 25.294 24.3203 25.251 24.3172ZM24.9497 22.2936L25.547 22.3437C25.9974 22.4363 26.3153 22.8292 26.2735 23.269C26.2285 23.7464 25.7748 24.1004 25.2629 24.0578C25.153 24.0485 25.0563 24.1239 25.0464 24.2264C25.0364 24.3295 25.1179 24.4197 25.2278 24.429C25.9603 24.4895 26.6067 23.9849 26.6716 23.3017C26.7053 22.9459 26.5749 22.6117 26.3384 22.3647C26.3477 22.3548 26.3563 22.3455 26.3649 22.3344C26.3715 22.3264 26.3603 22.3115 26.347 22.2967C26.3345 22.2825 26.3212 22.2695 26.3119 22.2751C26.298 22.2831 26.2848 22.2918 26.2715 22.3004C26.2649 22.2936 26.2576 22.2874 26.2497 22.2813C26.2563 22.2652 26.2629 22.2492 26.2689 22.2325C26.2722 22.2214 26.259 22.2078 26.2444 22.1954C26.2298 22.1824 26.2146 22.1719 26.2086 22.1806C26.1974 22.1942 26.1881 22.2084 26.1775 22.2226C26.1709 22.217 26.1636 22.2121 26.1563 22.2071C26.1583 22.1868 26.1596 22.1658 26.1596 22.1448C26.1603 22.1324 26.1451 22.1207 26.1292 22.1108C26.1126 22.1009 26.0974 22.0929 26.0947 22.1034C26.0927 22.1083 26.0914 22.1139 26.0901 22.1182L26.0801 21.7439C26.0775 21.6444 25.9881 21.5561 25.8828 21.5475L25.6848 21.5314L25.6795 21.393C25.7351 21.3974 25.7861 21.3615 25.7967 21.3096L25.849 21.0446L26.0292 20.9903C26.0331 20.9915 26.0364 20.994 26.0404 20.9946L26.3682 21.1046C26.4258 21.1237 26.4894 21.0953 26.5093 21.0422L26.5139 21.0311C26.5179 21.0311 26.5219 21.0311 26.5259 21.0298L26.7848 20.9668L26.8623 21.1478C26.9014 21.2398 27.0173 21.2942 27.1206 21.2676L27.602 21.1453C27.7047 21.1194 27.7564 21.0224 27.7166 20.9304L27.4948 20.4115C27.3808 19.9946 27.6126 19.5523 28.0524 19.3892C28.5299 19.2113 29.0729 19.4294 29.263 19.8741C29.3041 19.9699 29.42 20.0162 29.5226 19.9785C29.6246 19.9402 29.6749 19.8321 29.6339 19.7364C29.3617 19.0995 28.5875 18.7888 27.904 19.0433C27.5484 19.1749 27.2875 19.4349 27.1577 19.7432L27.1265 19.8272L27.0947 19.9402C27.0928 19.9489 27.0908 19.9569 27.0894 19.9655C27.0689 19.973 27.0484 19.981 27.0279 19.9902C27.0159 19.9958 27.012 20.0137 27.0093 20.0316C27.0073 20.0495 27.0067 20.0656 27.0179 20.0638C27.0239 20.0631 27.0285 20.0613 27.0345 20.0607L26.6802 20.2379C26.5868 20.2849 26.5424 20.3985 26.5815 20.4906L26.655 20.6623L26.4497 20.7685L26.1643 20.6728C26.1411 20.6654 26.1172 20.6654 26.0954 20.6716C26.0669 20.6444 26.0232 20.6326 25.9821 20.6444L25.651 20.7445C25.6027 20.7599 25.5722 20.8031 25.5748 20.8488C25.5371 20.8606 25.5073 20.8896 25.4993 20.9285L25.4424 21.2182C25.4172 21.2219 25.396 21.2374 25.3914 21.2578L25.3351 21.5024L25.1278 21.4844C25.0218 21.4764 24.9172 21.5487 24.896 21.6457L24.796 22.1015C24.7742 22.1985 24.8437 22.2856 24.9497 22.2936Z" fill="#E32040"/>
<path d="M29.5411 21.6839C29.1861 22.0916 28.5417 22.154 28.1046 21.8235C28.045 21.7784 27.9576 21.7865 27.9093 21.8421C27.8748 21.8816 27.8702 21.9341 27.8914 21.978C27.8834 22.0002 27.8755 22.0218 27.8682 22.0447C27.8622 22.062 27.8788 22.0743 27.896 22.0861C27.9139 22.0972 27.9318 22.1064 27.9417 22.0922C27.951 22.0793 27.9609 22.0663 27.9702 22.0533C27.9861 22.0644 28.0013 22.0743 28.0172 22.0848C28.0139 22.1003 28.0099 22.1151 28.0066 22.1305C28.0026 22.1478 28.0198 22.1596 28.0384 22.1688C28.0563 22.1787 28.0742 22.1861 28.0828 22.1707C28.0894 22.1589 28.0967 22.1472 28.1033 22.1355C28.1212 22.1447 28.1384 22.154 28.1563 22.1627C28.1536 22.1756 28.1516 22.1892 28.1496 22.2028C28.1477 22.2207 28.1649 22.23 28.1841 22.238C28.2026 22.2454 28.2205 22.251 28.2278 22.2349C28.2324 22.2244 28.2377 22.2139 28.2424 22.2028C28.2609 22.2108 28.2788 22.2189 28.2973 22.225C28.2967 22.2368 28.296 22.2485 28.2954 22.2609C28.2954 22.2788 28.3132 22.2862 28.3324 22.2924C28.3516 22.2985 28.3689 22.3022 28.3748 22.2856C28.3775 22.2751 28.3815 22.2652 28.3848 22.2553C28.4033 22.2609 28.4218 22.2658 28.4411 22.2701C28.4417 22.2819 28.4417 22.293 28.443 22.3041C28.4437 22.322 28.4622 22.3282 28.4815 22.3325C28.5 22.3368 28.5179 22.3387 28.5218 22.322C28.5238 22.3109 28.5265 22.2998 28.5291 22.2893C28.5477 22.2924 28.5662 22.2948 28.5848 22.2973C28.5867 22.3097 28.5881 22.322 28.5894 22.3344C28.5927 22.3529 28.6106 22.356 28.6298 22.3591C28.6483 22.3615 28.6656 22.3622 28.6675 22.3449C28.6695 22.3313 28.6715 22.3183 28.6728 22.3053C28.6907 22.306 28.708 22.3078 28.7258 22.3078C28.7291 22.322 28.7311 22.3362 28.7344 22.3504C28.7391 22.3683 28.7576 22.3708 28.7762 22.372C28.794 22.3727 28.8113 22.3714 28.8113 22.3535C28.8119 22.3387 28.8126 22.3233 28.8132 22.3084C28.8298 22.3084 28.8464 22.3078 28.8629 22.3072C28.8682 22.3226 28.8722 22.3387 28.8775 22.3535C28.8834 22.3714 28.9013 22.372 28.9192 22.3714C28.9371 22.3708 28.953 22.3677 28.9523 22.3504C28.951 22.3344 28.951 22.3189 28.9497 22.3035C28.9656 22.3022 28.9821 22.301 28.9987 22.2998C29.004 22.3146 29.0093 22.33 29.0159 22.3449C29.0232 22.3615 29.0404 22.3609 29.0576 22.3585C29.0755 22.356 29.0907 22.3523 29.0881 22.335C29.0861 22.3214 29.0848 22.3072 29.0828 22.2936C29.0993 22.2924 29.1152 22.2905 29.1325 22.2887C29.1384 22.3004 29.1431 22.3121 29.1497 22.3232C29.1576 22.3399 29.1748 22.3375 29.1914 22.3338C29.208 22.33 29.2225 22.3245 29.2186 22.3078C29.2152 22.2942 29.2133 22.2812 29.2099 22.2683L29.2556 22.1991C29.4451 22.125 29.6179 22.007 29.757 21.8476C30.1683 21.3751 30.1351 20.7012 29.7066 20.2657C29.7 20.309 29.6808 20.351 29.6497 20.3868C29.6166 20.4251 29.5735 20.4516 29.5252 20.4665C29.8384 20.8093 29.8563 21.3226 29.5411 21.6839Z" fill="#E32040"/>
<path d="M17.3633 21.0483C17.3322 20.4102 17.7991 18.6368 18.4786 18.6084C18.4872 18.6078 18.4965 18.6078 18.5051 18.6078C17.8382 18.6801 17.3938 20.6468 17.4282 21.3609C17.4282 21.3627 17.4282 21.364 17.4282 21.3652C17.3918 21.267 17.3686 21.1607 17.3633 21.0483ZM19.4773 24.2647C19.2826 24.3338 18.8879 24.3808 18.4329 24.3808C17.7839 24.3808 17.258 24.285 17.258 24.1664C17.258 24.1121 17.37 24.0627 17.5534 24.0244C17.4176 24.0596 17.3375 24.1028 17.3375 24.1491C17.3375 24.2677 17.8574 24.3635 18.4985 24.3635C18.9097 24.3635 19.2707 24.324 19.4773 24.2647ZM17.7362 21.9718C18.2289 22.6469 18.0004 23.768 17.5832 24.0009C17.36 24.0466 17.2223 24.1102 17.2223 24.18C17.2223 24.3202 17.7713 24.4339 18.4481 24.4339C19.1263 24.4339 19.6753 24.3202 19.6753 24.18C19.6753 24.109 19.5323 24.0448 19.3031 23.9984C18.8508 23.7575 18.6614 22.6068 19.1879 21.9378C19.4872 21.721 19.6806 21.3745 19.6806 20.9773C19.6806 20.3059 19.1289 18.5102 18.4488 18.5102C17.768 18.5102 17.2163 20.3522 17.2163 21.0236C17.2163 21.4319 17.4216 21.7704 17.7362 21.9718Z" fill="#E32040"/>
<path d="M24.1839 2.89246C24.2402 2.96782 24.3078 3.02464 24.3886 3.06418C24.4694 3.10309 24.5601 3.12286 24.6608 3.12286C24.7634 3.12286 24.8548 3.10309 24.9363 3.06418C25.0177 3.02464 25.0859 2.96782 25.1422 2.89246C25.1979 2.8171 25.2402 2.72506 25.2694 2.61573C25.2992 2.5064 25.3138 2.38039 25.3138 2.23832C25.3138 2.09687 25.2992 1.97086 25.2694 1.86153C25.2402 1.7522 25.1979 1.65954 25.1422 1.5848C25.0859 1.50944 25.0177 1.452 24.9363 1.41308C24.8548 1.37417 24.7634 1.3544 24.6608 1.3544C24.5601 1.3544 24.4694 1.37417 24.3886 1.41308C24.3078 1.452 24.2402 1.50944 24.1839 1.5848C24.1283 1.65954 24.0853 1.7522 24.0548 1.86153C24.025 1.97086 24.0098 2.09687 24.0098 2.23832C24.0098 2.38039 24.025 2.5064 24.0548 2.61573C24.0853 2.72506 24.1283 2.8171 24.1839 2.89246Z" fill="#E32040"/>
<path d="M27.3085 1.3909H26.9482V2.19267H27.3085C27.6423 2.19267 27.8099 2.05801 27.8099 1.78869C27.8099 1.65218 27.7681 1.5515 27.6847 1.48726C27.6019 1.42302 27.4761 1.3909 27.3085 1.3909Z" fill="#E32040"/>
<path d="M28.3398 2.11668C28.2934 2.2149 28.2259 2.29952 28.1365 2.37055C28.0471 2.44159 27.9365 2.49656 27.8053 2.53486C27.6729 2.57316 27.5219 2.59231 27.3517 2.59231H26.9484V3.48611H26.3623V0.991245H27.3517C27.5219 0.991245 27.6729 1.01039 27.8053 1.04869C27.9365 1.08761 28.0471 1.14134 28.1365 1.21114C28.2259 1.28094 28.2934 1.36495 28.3398 1.46255C28.3862 1.56076 28.41 1.66947 28.41 1.78869C28.41 1.90914 28.3862 2.01785 28.3398 2.11668ZM27.9742 4.6869H12.1003V4.362H27.9742V4.6869ZM11.8639 3.41816C11.7904 3.39593 11.7241 3.37122 11.6652 3.3428L11.8063 2.94686C11.8705 2.96601 11.9334 2.98392 11.9943 3.0006C12.0553 3.01728 12.1162 3.03149 12.1765 3.04384C12.2367 3.05619 12.297 3.06546 12.3579 3.07225C12.4189 3.07905 12.4818 3.08275 12.546 3.08275C12.6692 3.08275 12.7646 3.05805 12.8315 3.00987C12.8983 2.96169 12.9315 2.89374 12.9315 2.80541C12.9315 2.76155 12.9202 2.7214 12.8983 2.6862C12.8758 2.65037 12.8434 2.61887 12.8016 2.58984C12.7599 2.56142 12.7096 2.53486 12.65 2.51015C12.5911 2.48545 12.5255 2.46259 12.4533 2.44035C12.3328 2.40267 12.2242 2.36005 12.1268 2.31373C12.0301 2.2674 11.9473 2.21366 11.8791 2.15313C11.8109 2.09259 11.7586 2.02403 11.7208 1.94805C11.6837 1.87146 11.6652 1.78498 11.6652 1.688C11.6652 1.57805 11.6877 1.47799 11.7327 1.38842C11.7778 1.29824 11.842 1.22164 11.9255 1.1574C12.0089 1.09316 12.1089 1.04313 12.2261 1.00792C12.3434 0.972097 12.4752 0.954184 12.6209 0.954184C12.7023 0.954184 12.7831 0.960361 12.8639 0.972097C12.944 0.983833 13.0215 0.99804 13.095 1.01595C13.1679 1.03387 13.2354 1.05363 13.297 1.07525C13.3593 1.09749 13.4116 1.11973 13.4547 1.14134L13.3447 1.53976C13.2791 1.51876 13.2176 1.49961 13.1599 1.48169C13.1017 1.4644 13.0454 1.44896 12.9904 1.43598C12.9354 1.42301 12.8805 1.41313 12.8255 1.40572C12.7705 1.39831 12.7136 1.3946 12.654 1.3946C12.5242 1.3946 12.4275 1.42054 12.3639 1.47181C12.3003 1.52308 12.2685 1.58917 12.2685 1.67009C12.2685 1.709 12.2765 1.74545 12.2924 1.7788C12.3083 1.81278 12.3328 1.84428 12.3672 1.87393C12.401 1.90296 12.4447 1.93014 12.499 1.95546C12.5526 1.98017 12.6182 2.00426 12.6957 2.02773C12.8447 2.07159 12.9725 2.11915 13.0791 2.16919C13.1851 2.21922 13.2719 2.27481 13.3388 2.33596C13.4056 2.39711 13.4546 2.46506 13.4858 2.54042C13.5176 2.61578 13.5335 2.7004 13.5335 2.79429C13.5335 2.90424 13.5109 3.00431 13.4652 3.09326C13.4202 3.18282 13.356 3.2588 13.2725 3.32304C13.1891 3.38604 13.0891 3.43546 12.9705 3.47067C12.8526 3.50526 12.7209 3.52255 12.5758 3.52255C12.4983 3.52255 12.4182 3.51823 12.3367 3.50958C12.2546 3.50155 12.1738 3.4892 12.0937 3.47375C12.0135 3.45893 11.9367 3.43978 11.8639 3.41816ZM13.9719 0.991245H15.6944V1.3946H14.56V2.02959H15.5666V2.43294H14.56V3.08275H15.6944V3.48611H13.9719V0.991245ZM15.8951 0.991245H16.5289L17.0382 1.81834L17.5514 0.991245H18.1806L17.3839 2.22231L18.1806 3.48611H17.5475L17.0402 2.64234L16.5349 3.48611H15.8951L16.6918 2.22231L15.8951 0.991245ZM19.6363 2.6862C19.6137 2.65037 19.582 2.61887 19.5396 2.58984C19.4979 2.56142 19.4475 2.53486 19.3886 2.51015C19.329 2.48545 19.2641 2.46259 19.1919 2.44035C19.0707 2.40267 18.9621 2.36005 18.8654 2.31373C18.768 2.2674 18.6852 2.21366 18.617 2.15313C18.5495 2.09259 18.4965 2.02403 18.4588 1.94805C18.4217 1.87146 18.4031 1.78498 18.4031 1.688C18.4031 1.57805 18.4256 1.47799 18.4707 1.38842C18.5157 1.29824 18.5806 1.22164 18.6634 1.1574C18.7468 1.09316 18.8468 1.04313 18.9647 1.00792C19.0819 0.972097 19.2131 0.954184 19.3588 0.954184C19.4402 0.954184 19.521 0.960361 19.6018 0.972097C19.682 0.983833 19.7594 0.99804 19.833 1.01595C19.9065 1.03387 19.974 1.05363 20.0356 1.07525C20.0972 1.09749 20.1495 1.11973 20.1926 1.14134L20.0826 1.53976C20.0171 1.51876 19.9555 1.49961 19.8979 1.48169C19.8402 1.4644 19.7839 1.44896 19.7283 1.43598C19.6733 1.42301 19.6184 1.41313 19.5634 1.40572C19.5084 1.39831 19.4515 1.3946 19.3926 1.3946C19.2627 1.3946 19.166 1.42054 19.1018 1.47181C19.0382 1.52308 19.0071 1.58917 19.0071 1.67009C19.0071 1.709 19.0144 1.74545 19.0303 1.7788C19.0462 1.81278 19.0707 1.84428 19.1051 1.87393C19.1396 1.90296 19.1833 1.93014 19.2369 1.95546C19.2906 1.98017 19.3561 2.00426 19.4336 2.02773C19.5833 2.07159 19.7111 2.11915 19.8171 2.16919C19.923 2.21922 20.0098 2.27481 20.0767 2.33596C20.1436 2.39711 20.1926 2.46506 20.2244 2.54042C20.2555 2.61578 20.2714 2.7004 20.2714 2.79429C20.2714 2.90424 20.2489 3.00431 20.2038 3.09326C20.1581 3.18282 20.0939 3.2588 20.0104 3.32304C19.9277 3.38604 19.827 3.43546 19.7091 3.47067C19.5912 3.50526 19.4588 3.52255 19.3137 3.52255C19.2363 3.52255 19.1568 3.51823 19.0747 3.50958C18.9925 3.50155 18.9117 3.4892 18.8316 3.47375C18.7515 3.45893 18.6753 3.43978 18.6018 3.41816C18.5283 3.39593 18.4621 3.37122 18.4031 3.3428L18.5448 2.94686C18.6091 2.96601 18.6713 2.98392 18.7323 3.0006C18.7932 3.01728 18.8541 3.03149 18.9144 3.04384C18.9747 3.05619 19.0356 3.06546 19.0965 3.07225C19.1574 3.07905 19.2197 3.08275 19.2839 3.08275C19.4071 3.08275 19.5025 3.05805 19.5694 3.00987C19.6363 2.96169 19.6694 2.89374 19.6694 2.80541C19.6694 2.76155 19.6581 2.7214 19.6363 2.6862ZM20.7098 0.991245H21.2959V2.04071H22.3814V0.991245H22.9695V3.48611H22.3814V2.44406H21.2959V3.48611H20.7098V0.991245ZM23.5079 1.7053C23.5662 1.54717 23.6489 1.41251 23.7562 1.30133C23.8642 1.19014 23.9946 1.10428 24.1476 1.04437C24.3013 0.984451 24.4722 0.954184 24.6609 0.954184C24.851 0.954184 25.0225 0.984451 25.1755 1.04437C25.3278 1.10428 25.4583 1.19014 25.5669 1.30133C25.6748 1.41251 25.7583 1.54717 25.8166 1.7053C25.8748 1.86405 25.904 2.04132 25.904 2.23837C25.904 2.43665 25.8748 2.61516 25.8166 2.77329C25.7583 2.93204 25.6748 3.06669 25.5669 3.17788C25.4583 3.28906 25.3278 3.37431 25.1755 3.4336C25.0225 3.4929 24.851 3.52255 24.6609 3.52255C24.4722 3.52255 24.3013 3.4929 24.1476 3.4336C23.9946 3.37431 23.8642 3.28906 23.7562 3.17788C23.6489 3.06669 23.5662 2.93204 23.5079 2.77329C23.4489 2.61516 23.4198 2.43665 23.4198 2.23837C23.4198 2.04132 23.4489 1.86405 23.5079 1.7053ZM29.7584 4.6869H28.7769V4.362H29.7584V0.115356H10.3162V4.362H11.2976V4.6869H10.3162V5.27804H29.7584V4.6869Z" fill="#E32040"/>
</g>
<defs>
<filter id="filter0_d" x="0.000488281" y="0.115356" width="166.581" height="38.8846" filterUnits="userSpaceOnUse" color-interpolation-filters="sRGB">
<feFlood flood-opacity="0" result="BackgroundImageFix"/>
<feColorMatrix in="SourceAlpha" type="matrix" values="0 0 0 0 0 0 0 0 0 0 0 0 0 0 0 0 0 0 127 0"/>
<feOffset dy="4"/>
<feGaussianBlur stdDeviation="2"/>
<feColorMatrix type="matrix" values="0 0 0 0 0 0 0 0 0 0 0 0 0 0 0 0 0 0 0.25 0"/>
<feBlend mode="normal" in2="BackgroundImageFix" result="effect1_dropShadow"/>
<feBlend mode="normal" in="SourceGraphic" in2="effect1_dropShadow" result="shape"/>
</filter>
</defs>
</svg>
