<svg width="69" height="13" viewBox="0 0 69 13" fill="none" xmlns="http://www.w3.org/2000/svg">
<path d="M0 12.8204V0H1.77073V11.384H7.90927V12.8204H0Z" fill="white"/>
<path d="M19.2501 7.99033C19.2501 9.58241 18.8041 10.8154 17.9122 11.6892C17.0334 12.5631 15.8398 13 14.3314 13C13.4001 13 12.5672 12.8085 11.8327 12.4254C11.1113 12.0304 10.5407 11.4618 10.121 10.7196C9.70127 9.96547 9.4914 9.05571 9.4914 7.99033C9.4914 6.39825 9.93081 5.17127 10.8096 4.30939C11.6884 3.44751 12.882 3.01658 14.3904 3.01658C15.3479 3.01658 16.1874 3.21409 16.9088 3.60912C17.6433 3.99217 18.2139 4.55479 18.6205 5.29696C19.0402 6.02716 19.2501 6.92495 19.2501 7.99033ZM11.2818 7.99033C11.2818 9.12753 11.5245 10.0313 12.0098 10.7017C12.5082 11.36 13.2952 11.6892 14.3708 11.6892C15.4332 11.6892 16.2136 11.36 16.7121 10.7017C17.2105 10.0313 17.4597 9.12753 17.4597 7.99033C17.4597 6.85313 17.2105 5.96133 16.7121 5.31492C16.2136 4.66851 15.4266 4.3453 14.3511 4.3453C13.2755 4.3453 12.4951 4.66851 12.0098 5.31492C11.5245 5.96133 11.2818 6.85313 11.2818 7.99033Z" fill="white"/>
<path d="M23.9315 12.8204L19.9375 3.19613H21.7869L24.0299 8.87017C24.1348 9.13352 24.2463 9.4268 24.3643 9.75C24.4824 10.0732 24.5873 10.3844 24.6791 10.6837C24.7709 10.971 24.8365 11.2164 24.8759 11.4199H24.9546C25.007 11.2164 25.0792 10.965 25.171 10.6657C25.2759 10.3665 25.3874 10.0552 25.5055 9.73205C25.6366 9.40884 25.7481 9.12155 25.8399 8.87017L28.0829 3.19613H29.9323L25.9186 12.8204H23.9315Z" fill="white"/>
<path d="M35.6736 3.01658C36.5787 3.01658 37.3526 3.19613 37.9953 3.55525C38.6511 3.91436 39.1495 4.42311 39.4906 5.08149C39.8447 5.7279 40.0218 6.48803 40.0218 7.36188V8.31354H32.8011C32.8274 9.40285 33.129 10.2348 33.7062 10.8094C34.2964 11.372 35.1162 11.6533 36.1655 11.6533C36.8345 11.6533 37.4247 11.5994 37.9362 11.4917C38.4609 11.372 38.9987 11.2044 39.5496 10.9889V12.3715C39.0118 12.587 38.4806 12.7426 37.9559 12.8384C37.4313 12.9461 36.8082 13 36.0868 13C35.09 13 34.2046 12.8145 33.4307 12.4434C32.67 12.0723 32.0732 11.5216 31.6403 10.7914C31.2206 10.0493 31.0107 9.14549 31.0107 8.08011C31.0107 7.0267 31.2009 6.12293 31.5813 5.36878C31.9748 4.61464 32.5191 4.03407 33.2143 3.62707C33.9226 3.22007 34.7424 3.01658 35.6736 3.01658ZM35.654 4.30939C34.8276 4.30939 34.1718 4.55479 33.6865 5.04558C33.2143 5.5244 32.9323 6.19475 32.8405 7.05663H38.2117C38.1986 6.24263 37.9887 5.58425 37.5821 5.08149C37.1755 4.56676 36.5328 4.30939 35.654 4.30939Z" fill="white"/>
<path d="M41.8211 8.70856V7.30801H46.5824V8.70856H41.8211Z" fill="white"/>
<path d="M59.5533 12.8204H57.4678L52.4901 6.69751L51.0538 7.84668V12.8204H49.2831V0H51.0538V6.32044C51.4473 5.91344 51.8474 5.50645 52.254 5.09945C52.6606 4.69245 53.0672 4.28545 53.4738 3.87845L57.2711 0H59.3369L53.7689 5.58425L59.5533 12.8204Z" fill="white"/>
<path d="M65.2224 3.03453C66.5079 3.03453 67.4588 3.2919 68.0753 3.80663C68.6918 4.32136 69 5.14135 69 6.26658V12.8204H67.7408L67.4063 11.4558H67.3276C66.8686 11.9825 66.3832 12.3715 65.8717 12.6229C65.3733 12.8743 64.6781 13 63.7862 13C62.8287 13 62.0351 12.7726 61.4055 12.3177C60.7759 11.8508 60.4611 11.1266 60.4611 10.145C60.4611 9.18739 60.8743 8.4512 61.7006 7.93646C62.527 7.40976 63.7993 7.12247 65.5176 7.07459L67.308 7.02072V6.44613C67.308 5.64411 67.1178 5.08748 66.7374 4.77624C66.357 4.46501 65.8192 4.30939 65.1241 4.30939C64.5732 4.30939 64.0485 4.3872 63.5501 4.54282C63.0517 4.68646 62.586 4.85405 62.1532 5.04558L61.6219 3.8605C62.081 3.63306 62.6254 3.44153 63.255 3.28591C63.8845 3.11832 64.5404 3.03453 65.2224 3.03453ZM65.734 8.16989C64.4223 8.21777 63.5107 8.4093 62.9992 8.74448C62.5008 9.07965 62.2515 9.55249 62.2515 10.163C62.2515 10.7017 62.4286 11.0967 62.7828 11.3481C63.15 11.5994 63.6157 11.7251 64.1797 11.7251C65.0716 11.7251 65.8127 11.5037 66.4029 11.0608C66.9932 10.6059 67.2883 9.9116 67.2883 8.9779V8.11602L65.734 8.16989Z" fill="white"/>
</svg>
