<svg width="46" height="46" viewBox="0 0 46 46" fill="none" xmlns="http://www.w3.org/2000/svg">
<g clip-path="url(#clip0)">
<path d="M42.7295 18.9488L43.4702 21.0317C43.502 21.1209 43.5648 21.1915 43.644 21.2273L45.4945 22.061C45.756 22.1788 45.756 22.5953 45.4945 22.7132L43.644 23.5469C43.5648 23.5826 43.502 23.6533 43.4702 23.7424L42.7295 25.8253C42.6248 26.1195 42.2547 26.1195 42.1501 25.8253L41.4093 23.7424C41.3776 23.6532 41.3148 23.5826 41.2356 23.5469L39.385 22.7132C39.1236 22.5954 39.1236 22.1788 39.385 22.061L41.2356 21.2273C41.3148 21.1916 41.3776 21.1209 41.4093 21.0317L42.1501 18.9488C42.2547 18.6546 42.6248 18.6546 42.7295 18.9488Z" fill="#E32040"/>
<path d="M43.5901 12.9972C43.7956 12.128 43.2576 11.2568 42.3884 11.0514C41.5192 10.8459 40.648 11.384 40.4426 12.2532C40.2371 13.1223 40.7752 13.9935 41.6443 14.199C42.5135 14.4044 43.3847 13.8664 43.5901 12.9972Z" fill="#E32040"/>
<path d="M28.3733 2.70669C28.7586 2.70669 29.071 2.39431 29.071 2.00897C29.071 1.62362 28.7586 1.31124 28.3733 1.31124C27.9879 1.31124 27.6755 1.62362 27.6755 2.00897C27.6755 2.39431 27.9879 2.70669 28.3733 2.70669Z" fill="#E32040"/>
<path d="M4.45495 26.5336L5.00443 28.0787C5.02797 28.1448 5.07451 28.1973 5.13327 28.2238L6.50599 28.8423C6.69997 28.9297 6.69997 29.2386 6.50599 29.326L5.13327 29.9445C5.07451 29.971 5.02788 30.0233 5.00443 30.0896L4.45495 31.6346C4.37732 31.8529 4.10276 31.8529 4.02514 31.6346L3.47565 30.0896C3.45211 30.0234 3.40557 29.971 3.34682 29.9445L1.97409 29.326C1.78012 29.2386 1.78012 28.9296 1.97409 28.8423L3.34682 28.2238C3.40557 28.1973 3.4522 28.1449 3.47565 28.0787L4.02514 26.5336C4.10276 26.3154 4.37732 26.3154 4.45495 26.5336Z" fill="#E32040"/>
<path d="M35.6613 19.723C37.3894 17.8588 38.1416 16.3307 37.9589 15.0532C37.8354 13.4131 36.4609 12.1204 34.8109 12.1022C34.7993 12.102 34.7879 12.1019 34.7763 12.1019C33.9871 12.1019 33.2375 12.4001 32.6635 12.9054C32.0925 12.38 31.3364 12.0638 30.5344 12.055C30.5222 12.0548 30.5103 12.0548 30.4982 12.0548C28.8194 12.0548 27.4338 13.3459 27.3147 15.018C27.2326 15.5626 27.329 16.1591 27.6071 16.814C27.5241 16.8061 27.4404 16.801 27.3558 16.8001C26.6076 16.7893 25.8959 17.0644 25.3451 17.5332C24.8048 17.0522 24.0988 16.7642 23.351 16.756C23.3394 16.7558 23.3281 16.7557 23.3166 16.7557C21.7149 16.7557 20.3931 17.9869 20.2784 19.5818C20.181 20.2323 20.3507 20.9588 20.7908 21.7733H12.9769C10.8656 21.7733 9.14795 23.491 9.14795 25.6023V42.1711C9.14795 44.2824 10.8656 46.0001 12.9769 46.0001H32.5294C34.6408 46.0001 36.3585 44.2824 36.3585 42.1711V25.6024C36.3585 23.7823 35.0815 22.2558 33.3767 21.869C33.7544 21.5589 34.7174 20.7412 35.6613 19.723ZM30.3484 20.432C30.9564 21.0313 31.5043 21.5093 31.8172 21.7733H29.8736C30.1231 21.2992 30.2817 20.8527 30.3484 20.432ZM22.0642 19.8363C22.0702 19.802 22.0741 19.7673 22.076 19.7324C22.1129 19.072 22.6566 18.5593 23.3172 18.5593C23.3219 18.5593 23.3266 18.5594 23.3312 18.5594C23.842 18.565 24.305 18.8905 24.4834 19.3696C24.6136 19.7191 24.9455 19.9526 25.3185 19.9566C25.3218 19.9567 25.3251 19.9567 25.3285 19.9567C25.6975 19.9567 26.0298 19.7317 26.1664 19.3882C26.3537 18.9174 26.8172 18.6036 27.3226 18.6036H27.3361C27.9842 18.6107 28.5232 19.1225 28.563 19.7687C28.5649 19.798 28.5681 19.8274 28.5728 19.8564C28.6492 20.3312 28.2946 21.0278 27.7375 21.7734H22.9352C22.3434 20.9871 21.9871 20.281 22.0642 19.8363ZM25.5254 23.5769V44.1966H19.981V23.5769H25.5254ZM10.9514 42.1712V25.6024C10.9514 24.4855 11.8601 23.5769 12.9768 23.5769H18.1774V44.1966H12.9769C11.8601 44.1966 10.9514 43.2879 10.9514 42.1712ZM34.555 25.6024V42.1712C34.555 43.288 33.6463 44.1966 32.5294 44.1966H27.3289V23.5769H32.5294C33.6464 23.5769 34.555 24.4855 34.555 25.6024ZM32.6565 20.1218C30.9474 18.634 28.9122 16.359 29.1005 15.2727C29.1065 15.2384 29.1104 15.2037 29.1123 15.1687C29.1535 14.4309 29.7609 13.8583 30.4988 13.8583C30.504 13.8583 30.5093 13.8584 30.5144 13.8584C31.0849 13.8647 31.6021 14.2284 31.8013 14.7635C31.9315 15.1129 32.2635 15.3464 32.6365 15.3504C32.6398 15.3505 32.6432 15.3505 32.6465 15.3505C33.0155 15.3505 33.3477 15.1254 33.4844 14.7819C33.6935 14.256 34.2111 13.9054 34.7759 13.9054C34.7808 13.9054 34.7859 13.9054 34.791 13.9054C35.515 13.9134 36.1172 14.4852 36.1616 15.2072C36.1635 15.2365 36.1668 15.2658 36.1714 15.2948C36.3524 16.4196 34.3447 18.6659 32.6565 20.1218Z" fill="white"/>
<path d="M42.397 3.70872C42.2681 1.98031 40.8202 0.617826 39.0818 0.598779C38.2198 0.58674 37.394 0.92042 36.7751 1.48509C36.169 0.906944 35.3542 0.557721 34.4887 0.548197C34.4759 0.548018 34.4633 0.547928 34.4506 0.547928C32.6817 0.547928 31.2221 1.90888 31.098 3.67108C30.8968 4.99582 31.7017 6.61777 33.5569 8.62686C34.8342 10.0102 36.1461 11.0647 36.2014 11.109C36.3661 11.2409 36.5655 11.3068 36.765 11.3068C36.9624 11.3068 37.1597 11.2422 37.3235 11.113C37.3783 11.0699 38.679 10.0394 39.947 8.67169C41.7894 6.68417 42.5914 5.05997 42.397 3.70872ZM36.7691 9.23402C34.9125 7.62555 32.6755 5.12655 32.8835 3.92578C32.8896 3.89146 32.8935 3.85669 32.8954 3.82183C32.9416 2.99392 33.6231 2.35136 34.4511 2.35136C34.457 2.35136 34.4629 2.35145 34.4688 2.35145C35.109 2.35846 35.6892 2.76662 35.9128 3.36696C36.043 3.71654 36.375 3.94995 36.7479 3.95399C36.7512 3.95408 36.7546 3.95408 36.758 3.95408C37.127 3.95408 37.4592 3.72903 37.5959 3.38546C37.8325 2.79034 38.4193 2.39853 39.0618 2.40212C39.8744 2.41111 40.5499 3.05268 40.5999 3.86271C40.6018 3.89209 40.605 3.92138 40.6097 3.9504C40.8121 5.2092 38.6395 7.63642 36.7691 9.23402Z" fill="#E32040"/>
<path d="M28.0678 12.1999C28.704 11.8787 29.177 11.3291 29.3998 10.6522C29.6226 9.97514 29.5684 9.25199 29.2473 8.61581L27.5664 5.28512C26.9035 3.97178 25.2957 3.44234 23.9822 4.10538L22.7915 4.70635C22.6873 2.70005 21.6227 0.946925 19.8808 0.27687C17.3739 -0.687692 14.4015 0.950698 13.2558 3.92929C13.039 4.49279 12.9012 5.07174 12.8393 5.64845C12.6085 5.66821 12.3815 5.73263 12.1693 5.84152L10.2131 6.84391C10.0246 6.94049 9.85932 7.06825 9.71871 7.21838C9.22412 6.91911 8.67572 6.67599 8.08275 6.50583C6.62997 6.08904 5.12276 6.16092 3.83889 6.70825C2.49042 7.28307 1.54473 8.30764 1.17601 9.59295C0.650425 11.4251 1.45165 13.3744 3.05662 14.667L1.77653 15.3131C1.14034 15.6343 0.667225 16.1839 0.444413 16.8609C0.2216 17.5378 0.275776 18.261 0.596878 18.8973L2.27794 22.2279C2.74684 23.1568 3.68849 23.6935 4.66419 23.6935C5.06795 23.6935 5.47755 23.6016 5.8619 23.4076L28.0677 12.1999C28.0677 12.1999 28.0677 12.1999 28.0678 12.1999ZM14.939 4.57679C15.5869 2.89267 17.0023 1.79999 18.3624 1.79999C18.6581 1.79999 18.9512 1.85156 19.2333 1.96009C20.5176 2.45414 21.1814 3.97655 20.9607 5.63057L15.5034 8.385L14.6144 6.65048C14.5661 5.97485 14.6748 5.26383 14.939 4.57679ZM13.7139 17.4243L11.1702 12.5923L16.1206 10.0937L18.6642 14.9257L13.7139 17.4243ZM12.9966 7.44802L13.8919 9.19835L11.9251 10.191L11.0356 8.44897L12.9966 7.44802ZM2.90964 10.0903C3.12571 9.33698 3.707 8.72497 4.54614 8.36721C5.05501 8.15033 5.61923 8.04108 6.20367 8.04108C6.65765 8.04108 7.12376 8.10693 7.58528 8.23936C8.28472 8.44007 8.89808 8.7742 9.38998 9.18964C9.403 9.21857 9.41459 9.24786 9.42915 9.27625L10.3145 11.0039L4.89985 13.7367C3.38338 12.9273 2.52142 11.4435 2.90964 10.0903ZM5.04926 21.7974C4.62367 22.0124 4.10267 21.8405 3.88794 21.4151L2.20697 18.0845C2.10284 17.8783 2.08532 17.644 2.15755 17.4246C2.2297 17.2052 2.38297 17.0272 2.58916 16.9232L9.55987 13.4049L12.1035 18.2369L5.04926 21.7974ZM27.255 10.5899L27.255 10.5898L20.2745 14.1129L17.7309 9.28101L24.7949 5.71565C25.2062 5.49769 25.7552 5.67873 25.9563 6.09785L27.6373 9.42862C27.8521 9.85403 27.6805 10.3749 27.255 10.5899Z" fill="white"/>
<path d="M13.4262 32.8726C12.9282 32.8726 12.5244 32.4689 12.5244 31.9709V30.1826C12.5244 29.6846 12.9282 29.2809 13.4262 29.2809C13.9242 29.2809 14.3279 29.6846 14.3279 30.1826V31.9709C14.328 32.4689 13.9242 32.8726 13.4262 32.8726Z" fill="white"/>
<path d="M13.4262 27.9198C12.9282 27.9198 12.5244 27.5161 12.5244 27.0181V26.4743C12.5244 25.9763 12.9282 25.5726 13.4262 25.5726C13.9242 25.5726 14.3279 25.9763 14.3279 26.4743V27.0181C14.328 27.5161 13.9242 27.9198 13.4262 27.9198Z" fill="white"/>
</g>
<defs>
<clipPath id="clip0">
<rect width="46" height="46" fill="white" transform="translate(0 0.000152588)"/>
</clipPath>
</defs>
</svg>
