<svg width="25" height="25" viewBox="0 0 25 25" fill="none" xmlns="http://www.w3.org/2000/svg">
<path d="M3.12563 6.82109C3.13325 6.71934 3.21841 6.64062 3.32036 6.64062H6.83598V5.66406C6.83598 2.54082 9.37699 0 12.5 0C15.6231 0 18.1641 2.54082 18.1641 5.66406V6.64062H21.6797C21.7817 6.64062 21.8668 6.71934 21.8744 6.82109L23.2416 24.7898C23.2457 24.8439 23.2272 24.8975 23.1901 24.9373C23.1532 24.9773 23.1012 25 23.0469 25H1.95317C1.89888 25 1.84692 24.9773 1.81001 24.9375C1.77309 24.8977 1.75434 24.8441 1.75845 24.79L3.12563 6.82109ZM16.6016 5.66406C16.6016 3.40254 14.7618 1.5625 12.5 1.5625C10.2383 1.5625 8.39848 3.40254 8.39848 5.66406V6.64062H16.6016V5.66406ZM17.3828 12.1094C18.46 12.1094 19.336 11.2332 19.336 10.1562C19.336 9.37676 18.9453 8.67441 18.1641 8.36621V10.1562C18.1641 10.5871 17.8135 10.9375 17.3828 10.9375C16.9522 10.9375 16.6016 10.5871 16.6016 10.1562V8.36738C15.8203 8.67559 15.4297 9.3832 15.4297 10.1562C15.4297 11.2332 16.3057 12.1094 17.3828 12.1094ZM7.61723 12.1094C8.69438 12.1094 9.57035 11.2332 9.57035 10.1562C9.57035 9.37676 9.17973 8.67441 8.39848 8.36621V10.1562C8.39848 10.5871 8.04789 10.9375 7.61723 10.9375C7.18657 10.9375 6.83598 10.5871 6.83598 10.1562V8.36738C6.05473 8.67559 5.66411 9.3832 5.66411 10.1562C5.66411 11.2332 6.54008 12.1094 7.61723 12.1094Z" fill="white"/>
</svg>
