<svg width="19" height="19" viewBox="0 0 19 19" fill="none" xmlns="http://www.w3.org/2000/svg">
<path d="M9.5 19C14.7467 19 19 14.7467 19 9.5C19 4.25329 14.7467 0 9.5 0C4.25329 0 0 4.25329 0 9.5C0 14.7467 4.25329 19 9.5 19Z" fill="#039BE5"/>
<path d="M4.34713 9.29415L13.5067 5.76252C13.9318 5.60894 14.3031 5.86623 14.1654 6.50906L14.1662 6.50827L12.6066 13.8557C12.491 14.3766 12.1815 14.5033 11.7484 14.2579L9.37342 12.5075L8.22788 13.6111C8.10121 13.7378 7.99434 13.8446 7.74892 13.8446L7.91755 11.4277L12.3192 7.45115C12.5108 7.28252 12.2765 7.18752 12.0239 7.35536L6.58438 10.7801L4.23946 10.0486C3.73042 9.88711 3.71934 9.53956 4.34713 9.29415V9.29415Z" fill="white"/>
</svg>
