<svg width="19" height="19" viewBox="0 0 19 19" fill="none" xmlns="http://www.w3.org/2000/svg">
<g clip-path="url(#clip0)">
<path d="M16.245 2.73046C14.44 0.985625 12.065 0 9.53563 0C2.27604 0 -2.28238 7.86521 1.34267 14.1217L0 19L5.01521 17.6922C7.20021 18.8725 8.99017 18.768 9.54037 18.8377C17.9582 18.8377 22.1485 8.65371 16.2331 2.76133L16.245 2.73046Z" fill="#ECEFF1"/>
<path d="M9.55307 17.2195L9.54832 17.2187H9.53565C7.01657 17.2187 5.40711 16.0257 5.24878 15.9568L2.28003 16.7287L3.07565 13.8431L2.88645 13.5462C2.1027 12.2985 1.68628 10.8616 1.68628 9.38203C1.68628 2.4209 10.1927 -1.06006 15.1153 3.86015C20.026 8.7289 16.5783 17.2195 9.55307 17.2195Z" fill="#4CAF50"/>
<path d="M13.8598 11.3263L13.8527 11.3857C13.6144 11.267 12.4538 10.6993 12.2377 10.621C11.7524 10.4413 11.8894 10.5925 10.9576 11.6596C10.819 11.814 10.6813 11.8259 10.4462 11.719C10.2087 11.6003 9.44628 11.3509 8.54378 10.5434C7.84078 9.91401 7.36894 9.14214 7.22961 8.90464C6.99765 8.50405 7.48294 8.44705 7.92469 7.61105C8.00386 7.4448 7.96348 7.31418 7.9049 7.19622C7.84553 7.07747 7.3729 5.91372 7.17498 5.4498C6.98498 4.98747 6.78944 5.04605 6.64298 5.04605C6.18698 5.00647 5.85369 5.0128 5.55998 5.31839C4.28223 6.7228 4.60444 8.17155 5.69773 9.71214C7.84632 12.5241 8.99107 13.0419 11.0842 13.7607C11.6495 13.9404 12.1649 13.9151 12.5726 13.8565C13.027 13.7845 13.9714 13.2857 14.1686 12.7276C14.3704 12.1695 14.3704 11.7063 14.3111 11.5995C14.2525 11.4926 14.0973 11.4332 13.8598 11.3263Z" fill="#FAFAFA"/>
</g>
<defs>
<clipPath id="clip0">
<rect width="19" height="19" fill="white"/>
</clipPath>
</defs>
</svg>
