<svg width="206" height="39" fill="none" xmlns="http://www.w3.org/2000/svg"><g filter="url(#filter0_d)" fill="#E32040"><path d="M51.097 28.993V7.823h2.86v18.798h9.919v2.372h-12.78zM82.2 21.017c0 2.63-.721 4.665-2.162 6.108-1.42 1.443-3.349 2.165-5.786 2.165-1.504 0-2.85-.317-4.037-.95-1.166-.651-2.088-1.59-2.766-2.816-.678-1.245-1.017-2.747-1.017-4.507 0-2.628.71-4.654 2.13-6.078 1.42-1.423 3.348-2.134 5.785-2.134 1.548 0 2.904.326 4.07.978 1.186.633 2.108 1.562 2.765 2.787.678 1.206 1.017 2.688 1.017 4.447zm-12.875 0c0 1.878.392 3.37 1.176 4.477.805 1.088 2.077 1.631 3.815 1.631 1.716 0 2.977-.543 3.783-1.63.805-1.107 1.208-2.6 1.208-4.478 0-1.877-.403-3.35-1.208-4.417-.806-1.068-2.077-1.601-3.815-1.601s-2.999.533-3.783 1.6c-.784 1.068-1.176 2.54-1.176 4.418zm20.438 7.976L83.31 13.101h2.988l3.624 9.37c.17.434.35.918.54 1.452.191.534.36 1.048.51 1.542.148.474.253.88.317 1.215h.127c.085-.336.202-.75.35-1.245.17-.494.35-1.008.54-1.542a44.65 44.65 0 00.54-1.423l3.625-9.369h2.988l-6.485 15.892h-3.21zm18.972-16.188c1.462 0 2.713.296 3.751.89a5.86 5.86 0 012.416 2.52c.572 1.067.859 2.322.859 3.765v1.571h-11.667c.042 1.799.53 3.173 1.462 4.121.954.93 2.278 1.394 3.974 1.394 1.081 0 2.034-.09 2.861-.267a18.136 18.136 0 002.607-.83v2.283a13.09 13.09 0 01-2.575.77c-.848.179-1.855.268-3.02.268-1.611 0-3.041-.307-4.292-.92a6.783 6.783 0 01-2.893-2.727c-.678-1.226-1.017-2.718-1.017-4.477 0-1.74.307-3.232.922-4.477.636-1.246 1.515-2.204 2.639-2.876 1.144-.672 2.468-1.008 3.973-1.008zm-.032 2.134c-1.335 0-2.394.405-3.179 1.216-.762.79-1.218 1.897-1.366 3.32h8.678c-.021-1.343-.36-2.43-1.017-3.26-.657-.85-1.696-1.276-3.116-1.276zm9.965 7.264v-2.312h7.693v2.312h-7.693zm28.65 6.79h-3.37l-8.042-10.11-2.321 1.897v8.213h-2.861V7.823h2.861V18.26a172.32 172.32 0 011.939-2.016l1.971-2.016 6.135-6.404h3.338l-8.996 9.22 9.346 11.95zm9.16-16.159c2.077 0 3.613.425 4.609 1.275.996.85 1.494 2.204 1.494 4.062v10.822h-2.034l-.541-2.253h-.127c-.742.87-1.526 1.512-2.352 1.927-.806.415-1.929.623-3.37.623-1.547 0-2.829-.376-3.846-1.127-1.018-.771-1.526-1.967-1.526-3.588 0-1.58.667-2.797 2.002-3.646 1.336-.87 3.391-1.345 6.167-1.424l2.893-.089v-.948c0-1.325-.307-2.244-.922-2.758-.614-.514-1.483-.77-2.606-.77-.89 0-1.738.128-2.543.385-.806.237-1.558.514-2.257.83l-.859-1.957c.742-.375 1.621-.692 2.639-.949a12.058 12.058 0 013.179-.415zm.826 8.48c-2.119.079-3.592.395-4.419.949-.805.553-1.207 1.334-1.207 2.342 0 .89.286 1.542.858 1.957.593.415 1.346.622 2.257.622 1.441 0 2.638-.365 3.592-1.097.954-.75 1.43-1.897 1.43-3.439v-1.423l-2.511.089zM30.923 15.129c-.266.327-.774.53-1.327.53h-.687c-.867 0-1.563-.509-1.617-1.185-.223-2.814-1.142-6.027-2.434-8.563h1.926c2.283 2.494 3.927 5.796 4.307 8.657a.714.714 0 01-.168.561zm-9.239.027c-.287.315-.775.502-1.303.502h-.687c-.528 0-1.015-.187-1.303-.502a.883.883 0 01-.25-.635c.075-2.843.394-6.104.838-8.61h2.117c.444 2.506.762 5.767.837 8.609a.884.884 0 01-.249.636zm-8.9-.682c-.055.676-.751 1.184-1.618 1.184h-.687c-.552 0-1.06-.202-1.327-.529a.714.714 0 01-.167-.56c.378-2.862 2.023-6.164 4.306-8.658h1.926c-1.291 2.536-2.211 5.749-2.434 8.563zm23.27.035c-.538-2.908-2.866-6.357-6.34-9.015H10.36c-3.475 2.658-5.803 6.107-6.34 9.015-.172.901.776 1.567 1.851 1.567h.686c1.08 0 1.917-.666 2.039-1.567-.123.901.808 1.567 1.882 1.567h.687c1.077 0 1.935-.666 2.007-1.567-.074.901.838 1.567 1.913 1.567h.687c1.077 0 1.953-.666 1.977-1.567-.026.901.867 1.567 1.944 1.567h.687c1.076 0 1.97-.666 1.944-1.567.024.901.9 1.567 1.977 1.567h.687c1.075 0 1.986-.666 1.913-1.567.072.901.93 1.567 2.007 1.567h.687c1.074 0 2.004-.666 1.882-1.567.121.901.96 1.567 2.039 1.567h.687c1.074 0 2.022-.666 1.85-1.567zm-29.009 1.92H6.96v12.666h26.156V16.429h-.085c-.179 0-.352-.015-.519-.044v11.588H7.564V16.385a3.03 3.03 0 01-.519.044z"/><path d="M30.825 24.9H9.25v-7.19h21.575v7.19zM8.45 16.963v8.683h23.174v-8.683H8.45zM6.956 31h26.163v-1.569H6.956V31zm.928-4.208H32.19v-.713H7.884v.713z"/><path d="M22.293 18.354c-.09-.105-.197-.166-.312-.166-.114 0-.22.06-.31.166a1.494 1.494 0 00.622 0zm-.533 2.213c.068 0 .124.052.124.116 0 .065-.056.116-.125.116-.07 0-.125-.051-.125-.116 0-.064.056-.116.125-.116zm0-.48c.068 0 .124.053.124.117s-.056.117-.125.117c-.07 0-.125-.053-.125-.117s.056-.117.125-.117zm0-.48c.068 0 .124.053.124.117s-.056.117-.125.117c-.07 0-.125-.053-.125-.117s.056-.116.125-.116zm.444.96c.07 0 .125.052.125.116 0 .065-.056.116-.125.116-.068 0-.124-.051-.124-.116 0-.064.056-.116.125-.116zm0-.48c.07 0 .125.053.125.117s-.056.117-.125.117c-.068 0-.124-.053-.124-.117s.056-.117.125-.117zm0-.48c.07 0 .125.053.125.117s-.056.117-.125.117c-.068 0-.124-.053-.124-.117s.056-.116.125-.116zm-.931 1.226c0 .07.06.127.135.128v2.44c0 .111.098.203.218.203h.712c.12 0 .217-.092.217-.203v-2.44c.075-.001.136-.058.136-.128s-.06-.127-.136-.128v-.272c.075-.001.136-.058.136-.128s-.06-.128-.136-.128v-.273c.075 0 .136-.057.136-.128 0-.07-.06-.126-.136-.127v-.417c0-.338-.088-.638-.225-.83a1.53 1.53 0 01-.697 0c-.136.192-.225.492-.225.83v.417c-.075 0-.135.058-.135.127 0 .071.06.128.135.128v.273c-.075 0-.135.058-.135.128s.06.127.135.128v.272a.131.131 0 00-.135.128zm.353 3.067a.3.3 0 01-.218-.093v.272c0 .112.098.203.218.203h.12a.254.254 0 00.235.152c.108 0 .2-.063.237-.152h.12c.12 0 .217-.09.217-.203v-.272a.3.3 0 01-.218.093h-.711z"/><path d="M21.626 23.672a.298.298 0 01-.218-.093v.15a.298.298 0 00.218.092h.711a.298.298 0 00.218-.093v-.149a.298.298 0 01-.218.093h-.711zM10.195 20.2c.018-.147.065-.284.134-.408.01.106.035.211.066.316-.224.467.226 1.022.588 1.318a1.652 1.652 0 01.119.743c-.105-.172-.222-.337-.336-.504-.3-.437-.636-.923-.571-1.465zm1.611-1.12c.415.047.733.287 1.02.561.023.077.044.155.068.231a2.175 2.175 0 00-.67-.407 1.787 1.787 0 00-.545-.237c-.45-.096-.942.114-1.092.534a.515.515 0 00-.027.115.959.959 0 00-.044.049 1.428 1.428 0 01-.034-.35 1.569 1.569 0 011.324-.496zm-1.291.26c.108-.427.545-.645 1.006-.654.392-.008.775.094 1.029.377.085.096.144.204.19.32-.262-.213-.555-.38-.93-.422a1.684 1.684 0 00-1.303.413l.008-.035zm.245.362c.153-.278.575-.413.914-.323a1.773 1.773 0 00-.914.323zm-.12.601a1.598 1.598 0 00.235.375.913.913 0 00.031.172c-.093-.183-.189-.364-.265-.547zm-.074-.195l.005-.01c.015.066.038.133.066.197-.012-.03-.026-.06-.037-.091a2.914 2.914 0 01-.034-.096zm.181.798c.056.113.112.227.163.343a1.736 1.736 0 01-.125-.135c-.174-.212-.314-.478-.297-.751.08.19.174.373.26.543zm.337-.785a.668.668 0 00-.191.322 1.298 1.298 0 01-.17-.362.54.54 0 01-.022-.148c.233-.232.61-.381.896-.439.118-.023.234-.026.347-.014.179.084.344.192.51.302-.492-.09-1.055.032-1.37.34zm.48 1.207c.156.156.265.316.276.526a5.39 5.39 0 00-.209-.121c-.044-.064-.092-.125-.14-.187-.152-.196-.33-.421-.415-.66.162.151.339.292.488.442zm.256.736a1.405 1.405 0 00-.105-.204c.042.024.083.048.123.073l.001.002a.817.817 0 01-.019.129zm-.646-.598a2.463 2.463 0 00-.067-.188l.019.03c.056.083.12.164.181.244a2.734 2.734 0 01-.133-.086zm2.061-1.415a1.76 1.76 0 01-.127-.053 2.69 2.69 0 01-.046-.122l.173.175zm-2.25 2.227c.03.051.059.104.087.156a4.133 4.133 0 01-.046.239 1.7 1.7 0 01-.233.587l.087.052c.154-.17.248-.396.304-.634l.003.008c.068.177.064.363.11.544.018.075.175.039.156-.036-.04-.159-.037-.323-.087-.48a2.132 2.132 0 00-.134-.313 3.41 3.41 0 00.02-.502 1.543 1.543 0 00-.045-.316c.071.042.145.082.218.122.074.098.144.198.2.306.051.099.085.204.108.311-.065.15-.145.297-.207.426-.043.089.072.109.112.025.04-.082.085-.168.128-.255.018.148.029.296.049.439.01.071.17.044.159-.028-.032-.222-.044-.448-.094-.668.031-.082.056-.166.07-.25.25.186.444.42.621.671.025.035.172.078.124.01a3.172 3.172 0 00-.533-.609 2.352 2.352 0 00-.202-.151.7.7 0 00-.064-.36c-.112-.236-.316-.41-.51-.586a3.585 3.585 0 01-.359-.363.64.64 0 01.072-.295c.169-.333.617-.45.98-.456.362-.006.767.107.986.387.004.009.01.017.015.023-.085.071-.098.163-.048.235.037.051.12.11.207.127a.215.215 0 00.033.08l.155.219a1.206 1.206 0 00.532-.326l-.154-.22a.22.22 0 00-.066-.06.313.313 0 00-.043-.228c-.049-.07-.143-.095-.245-.053-.161-.151-.316-.313-.477-.466a2.878 2.878 0 00-.106-.303c-.143-.334-.448-.54-.809-.642-.584-.165-1.364.012-1.635.561a.992.992 0 00-.1.36c-.09.114-.166.24-.22.379-.218.546.066 1.095.366 1.558.17.26.355.51.514.775zm2.943-1.164a1.217 1.217 0 01-.29.129l.125.178c.095-.027.194-.07.29-.13.096-.058.179-.126.243-.196l-.126-.178c-.064.07-.146.138-.242.197z"/><path d="M13.755 20.867c-.096.06-.196.103-.29.13l.135.192a1.176 1.176 0 00.532-.326l-.135-.192a1.1 1.1 0 01-.242.196zm.335.479a1.2 1.2 0 01-.288.13l.133.19a1.17 1.17 0 00.533-.326l-.135-.19a1.12 1.12 0 01-.242.196zm1.104 1.724l.155-.095a.221.221 0 00.03-.022.13.13 0 01-.063.133.153.153 0 01-.156.001.3.3 0 00.034-.017zm.575.742c.065.148.082.315-.036.443-.076.083-.248.186-.354.091-.16-.141-.1-.502-.09-.682.008-.147.053-.34.031-.502a.352.352 0 00.035-.017c.122.23.308.428.414.668zm-1.505-2.221a1.206 1.206 0 01-.29.129l.226.321c.038.055.1.087.165.094a.196.196 0 00.027.178l.49.697c.042.06.113.093.186.095.05.055.125.08.199.07.009.081-.004.17-.008.245-.01.157-.023.315-.026.473-.002.146-.025.543.218.54.239-.002.443-.268.416-.474-.041-.326-.313-.569-.464-.852a.195.195 0 00.03-.226.2.2 0 00-.02-.198l-.49-.695a.226.226 0 00-.165-.094.199.199 0 00-.026-.18l-.226-.32c-.064.07-.146.137-.242.197zm11.209.262c.035.003.067-.021.07-.054.003-.033-.024-.062-.059-.065a.063.063 0 00-.07.054.063.063 0 00.059.065zm1.586-1.106a.058.058 0 00-.014-.084.067.067 0 00-.09.013.059.059 0 00.015.084.069.069 0 00.089-.013zm-2.043 3.618a.234.234 0 01.032-.285c-.46-.13-.776-.547-.732-1.01a.964.964 0 01.516-.752.218.218 0 01-.04-.032l-.008-.007a.095.095 0 01-.01-.012.202.202 0 01-.041-.177l.01-.05.012-.053.006-.027-.023-.047c-.006-.009-.023-.002-.04.008-.018.009-.034.019-.032.03a.524.524 0 00.01.054.244.244 0 00-.022.013l-.04-.036c-.01-.006-.026.004-.042.016-.017.01-.03.023-.025.031l.024.038c-.154.1-.29.227-.39.361l.026.073c-.105.16-.174.344-.193.543-.059.619.378 1.172 1.002 1.321z"/><path d="M25.489 21.687c.068.005.12.062.113.127a.114.114 0 01-.059.088l-.041.147-.093-.008-.012-.15a.112.112 0 01-.044-.098c.006-.065.067-.112.136-.106zm-.043-.376c.014.028.043.05.08.057l.092.016a.096.096 0 01-.101.066.092.092 0 01-.088-.097.083.083 0 01.017-.042zm.087-.04a.098.098 0 01.077.049l-.073-.013a.042.042 0 01-.035-.033.133.133 0 01.031-.003zm.032-.331a.043.043 0 01.026-.031l.034.094a.112.112 0 00.14.067l.012-.004-.046.232c-.004.023-.028.038-.052.033h-.002l-.002-.05c0-.026-.028-.049-.06-.05l-.106-.01.056-.281zm.107-.136l.33-.1a.05.05 0 01.037.004.111.111 0 00-.017.028l-.048.127a.097.097 0 00.003.078l-.115.035a.106.106 0 00-.09-.106l-.13-.022c-.003-.019.01-.038.03-.044zm.431.055c.008.021-.006.045-.028.052l-.033.01a.039.039 0 01-.006-.038l.04-.103.027.08zm.063-.02l-.038-.11a.05.05 0 01.014.003l.253.084a.062.062 0 00.003.04l.058.135.002.004-.011.026c-.008.021-.034.032-.057.025l-.267-.09a.1.1 0 00.043-.116zm.308.004c.02.009.03.031.022.05l-.011.03a.085.085 0 01-.011-.08zm-.683.154l-.047.014a.047.047 0 01-.057-.027l-.023-.07.095.017c.024.004.04.026.036.049l-.004.017zm.738-.207a.099.099 0 01.125.05.088.088 0 01-.055.116.104.104 0 01-.058.004l.018-.046a.1.1 0 00-.042-.119l.012-.006zm.433-.186a.134.134 0 01.111.01l.16-.033.035.081-.138.078a.12.12 0 01-.075.081.13.13 0 01-.163-.065.114.114 0 01.07-.152zm2.454-.877a.08.08 0 01.1.04.071.071 0 01-.043.094.08.08 0 01-.1-.04.07.07 0 01.043-.094zm-4.165 4.59a.075.075 0 01-.07-.078c.004-.04.041-.069.084-.066.042.004.074.039.07.079-.004.04-.041.068-.084.065zm-.301-2.023l.597.05c.45.092.768.485.726.925-.044.477-.498.831-1.01.789-.11-.01-.207.066-.217.168-.01.104.072.194.182.203.732.06 1.379-.444 1.444-1.127a1.187 1.187 0 00-.334-.937.41.41 0 00.027-.03c.007-.009-.005-.024-.018-.038-.013-.015-.026-.027-.035-.022l-.04.025a.203.203 0 00-.022-.019l.019-.048c.003-.012-.01-.025-.025-.038-.014-.013-.03-.023-.035-.014-.012.013-.02.027-.032.042l-.02-.016a.638.638 0 00.003-.062c0-.013-.015-.024-.03-.034-.017-.01-.033-.018-.035-.008l-.005.015-.01-.374c-.002-.1-.092-.188-.197-.197l-.198-.016-.005-.138a.11.11 0 00.117-.083l.052-.265.18-.055.011.005.328.11a.113.113 0 00.141-.063l.005-.01c.004 0 .008 0 .012-.002l.259-.063.077.18c.04.093.155.147.259.12l.481-.122c.103-.026.154-.123.115-.215l-.222-.518c-.114-.417.118-.86.557-1.023.478-.178 1.02.04 1.211.485a.205.205 0 00.26.105c.102-.039.152-.147.11-.243-.271-.637-1.046-.947-1.729-.693a1.283 1.283 0 00-.746.7l-.032.084-.031.113-.006.025a.928.928 0 00-.061.025c-.012.006-.016.024-.019.042-.002.017-.002.034.009.032.006 0 .01-.003.017-.003l-.355.177a.202.202 0 00-.099.253l.074.171-.205.107-.286-.096a.12.12 0 00-.069-.001.118.118 0 00-.113-.028l-.331.1a.105.105 0 00-.076.105.107.107 0 00-.076.08l-.057.29c-.025.003-.046.018-.05.039l-.057.244-.207-.018c-.106-.008-.21.065-.232.162l-.1.456c-.022.096.048.184.154.192z"/><path d="M29.541 21.684c-.355.408-1 .47-1.436.14a.146.146 0 00-.196.018.123.123 0 00-.018.136l-.023.067c-.006.017.01.03.028.041.018.011.036.02.046.006l.028-.039.047.032-.01.046c-.004.017.013.029.031.038.018.01.036.017.045.002l.02-.035.053.027a.684.684 0 00-.006.04c-.002.018.015.027.034.035.019.007.037.013.044-.003l.014-.032c.019.008.037.016.055.022l-.002.036c0 .018.018.025.037.031.02.006.037.01.043-.006l.01-.03.056.014c0 .012 0 .023.002.034 0 .018.02.024.038.029.019.004.037.006.04-.011a.522.522 0 01.008-.033l.056.008a.782.782 0 01.004.037c.004.019.022.022.04.025.02.002.037.003.038-.014l.006-.04c.018.001.035.003.053.003l.008.042c.005.018.024.02.042.022.018 0 .035 0 .035-.018l.002-.046h.05l.015.046c.005.017.023.018.041.017.018 0 .034-.003.033-.02l-.002-.047a5.28 5.28 0 01.049-.004c.005.015.01.03.017.045.007.017.024.016.042.014.018-.003.033-.007.03-.024l-.005-.041.05-.005c.005.011.01.023.017.034.008.017.025.014.041.01.017-.003.032-.008.028-.025l-.01-.04.047-.069a1.28 1.28 0 00.501-.351 1.151 1.151 0 00-.05-1.582.24.24 0 01-.057.12.266.266 0 01-.125.08.904.904 0 01.016 1.218zm-12.178-.636c-.03-.638.436-2.411 1.116-2.44h.026c-.667.072-1.111 2.039-1.077 2.753v.004a1.053 1.053 0 01-.065-.317zm2.114 3.217c-.194.069-.59.116-1.044.116-.65 0-1.175-.096-1.175-.215 0-.054.112-.103.295-.142-.135.036-.216.079-.216.125 0 .119.52.214 1.162.214.41 0 .772-.039.978-.098zm-1.74-2.293c.492.675.263 1.796-.154 2.029-.223.046-.36.11-.36.179 0 .14.548.254 1.225.254.678 0 1.227-.114 1.227-.254 0-.071-.143-.135-.372-.182-.452-.24-.642-1.391-.115-2.06.3-.217.493-.563.493-.96 0-.672-.552-2.468-1.232-2.468-.681 0-1.233 1.842-1.233 2.514 0 .408.206.746.52.948zm6.447-19.08a.559.559 0 00.477.23.63.63 0 00.275-.058.558.558 0 00.206-.172.813.813 0 00.127-.276c.03-.11.045-.236.045-.378a1.44 1.44 0 00-.045-.376.808.808 0 00-.127-.277.552.552 0 00-.206-.172.63.63 0 00-.275-.059.62.62 0 00-.272.06.553.553 0 00-.205.17.837.837 0 00-.13.278 1.47 1.47 0 00-.044.376c0 .142.015.268.045.378.03.11.073.201.129.276zm3.124-1.502h-.36v.803h.36c.334 0 .502-.135.502-.404 0-.137-.042-.237-.125-.302-.083-.064-.209-.096-.377-.096z"/><path d="M28.34 2.117a.707.707 0 01-.203.254.958.958 0 01-.332.164 1.634 1.634 0 01-.453.057h-.404v.894h-.586V.991h.99c.17 0 .32.02.453.058a.99.99 0 01.332.162.704.704 0 01.273.578.76.76 0 01-.07.328zm-.366 2.57H12.1v-.325h15.874v.325zm-16.11-1.269a1.373 1.373 0 01-.199-.075l.141-.396.188.054a2.886 2.886 0 00.364.071c.06.007.124.01.188.01a.484.484 0 00.286-.072.237.237 0 00.1-.205.222.222 0 00-.034-.119.34.34 0 00-.096-.096.841.841 0 00-.152-.08 2.144 2.144 0 00-.197-.07 2.49 2.49 0 01-.326-.126c-.097-.047-.18-.1-.248-.16a.588.588 0 01-.214-.465.658.658 0 01.26-.532.922.922 0 01.301-.15 1.35 1.35 0 01.395-.053c.081 0 .162.006.243.018a2.528 2.528 0 01.433.103c.062.022.115.045.158.066l-.11.399-.185-.058a3.086 3.086 0 00-.17-.046 1.714 1.714 0 00-.165-.03 1.281 1.281 0 00-.171-.011c-.13 0-.226.026-.29.077a.243.243 0 00-.096.198.25.25 0 00.024.109c.016.034.04.065.075.095a.574.574 0 00.132.081c.054.025.12.05.197.073a2.7 2.7 0 01.383.141c.106.05.193.106.26.167a.575.575 0 01.194.458.646.646 0 01-.26.529.938.938 0 01-.303.148 1.4 1.4 0 01-.394.052 2.636 2.636 0 01-.712-.104zM13.972.991h1.722v.404H14.56v.635h1.007v.403H14.56v.65h1.134v.403h-1.722V.991zm1.923 0h.634l.51.827.512-.827h.63l-.797 1.231.797 1.264h-.634l-.507-.844-.505.844h-.64l.797-1.264-.797-1.23zm3.741 1.695a.333.333 0 00-.096-.096.858.858 0 00-.151-.08 2.22 2.22 0 00-.197-.07 2.416 2.416 0 01-.327-.126c-.097-.047-.18-.1-.248-.16a.588.588 0 01-.214-.465.657.657 0 01.26-.532.919.919 0 01.302-.15 1.37 1.37 0 01.394-.053c.081 0 .162.006.243.018a2.53 2.53 0 01.434.103c.061.022.113.045.157.066l-.11.399-.185-.058a2.845 2.845 0 00-.17-.046 1.714 1.714 0 00-.165-.03 1.278 1.278 0 00-.17-.011c-.13 0-.227.026-.291.077a.243.243 0 00-.095.198.25.25 0 00.023.109c.016.034.04.065.075.095a.606.606 0 00.132.081c.054.025.12.05.197.073.15.044.277.091.383.141.106.05.193.106.26.167a.583.583 0 01.194.458.653.653 0 01-.26.529.934.934 0 01-.302.148c-.118.034-.25.052-.395.052a2.633 2.633 0 01-.712-.104 1.377 1.377 0 01-.199-.076l.142-.396.187.054a2.867 2.867 0 00.364.071c.061.007.124.01.188.01a.484.484 0 00.285-.072.237.237 0 00.1-.205.223.223 0 00-.033-.119zM20.71.991h.586v1.05h1.085V.99h.588v2.495h-.588V2.444h-1.085v1.042h-.586V.991zm2.798.714c.058-.158.14-.292.248-.404.108-.11.239-.197.392-.257.153-.06.324-.09.513-.09.19 0 .361.03.514.09.153.06.283.146.392.257.108.112.191.246.25.404.058.159.087.336.087.533 0 .199-.03.377-.087.535a1.133 1.133 0 01-.25.405c-.109.111-.24.196-.392.256a1.414 1.414 0 01-.514.089c-.189 0-.36-.03-.513-.09a1.083 1.083 0 01-.392-.255 1.14 1.14 0 01-.248-.405 1.523 1.523 0 01-.088-.535c0-.197.029-.374.088-.533zm6.25 2.982h-.981v-.325h.981V.115H10.316v4.247h.982v.325h-.982v.591h19.442v-.591z"/></g><defs><filter id="filter0_d" x="0" y=".115" width="166.581" height="38.885" filterUnits="userSpaceOnUse" color-interpolation-filters="sRGB"><feFlood flood-opacity="0" result="BackgroundImageFix"/><feColorMatrix in="SourceAlpha" values="0 0 0 0 0 0 0 0 0 0 0 0 0 0 0 0 0 0 127 0"/><feOffset dy="4"/><feGaussianBlur stdDeviation="2"/><feColorMatrix values="0 0 0 0 0 0 0 0 0 0 0 0 0 0 0 0 0 0 0.25 0"/><feBlend in2="BackgroundImageFix" result="effect1_dropShadow"/><feBlend in="SourceGraphic" in2="effect1_dropShadow" result="shape"/></filter></defs></svg>