<svg width="46" height="46" fill="none" xmlns="http://www.w3.org/2000/svg"><g clip-path="url(#clip0)"><path d="M42.73 18.949l.74 2.083c.032.089.095.16.174.195l1.85.834c.262.118.262.534 0 .652l-1.85.834a.335.335 0 00-.174.195l-.74 2.083c-.105.294-.475.294-.58 0l-.74-2.083a.334.334 0 00-.174-.195l-1.851-.834c-.261-.118-.261-.534 0-.652l1.85-.834a.334.334 0 00.174-.195l.741-2.083c.105-.294.475-.294.58 0zm.86-5.952a1.617 1.617 0 10-3.147-.744 1.617 1.617 0 003.147.744zM28.373 2.707a.698.698 0 100-1.396.698.698 0 000 1.396zM4.455 26.534l.55 1.545a.25.25 0 00.128.145l1.373.618c.194.088.194.397 0 .484l-1.373.619a.247.247 0 00-.129.145l-.549 1.545c-.078.218-.352.218-.43 0l-.55-1.545a.248.248 0 00-.128-.145l-1.373-.619c-.194-.087-.194-.396 0-.484l1.373-.618a.248.248 0 00.129-.145l.55-1.545c.077-.219.351-.219.429 0z" fill="#E32040"/><path d="M35.661 19.723c1.728-1.864 2.48-3.392 2.298-4.67a3.204 3.204 0 00-3.183-2.951c-.789 0-1.539.298-2.113.803a3.205 3.205 0 00-2.129-.85h-.036a3.186 3.186 0 00-3.183 2.963c-.082.545.014 1.141.292 1.796a3.043 3.043 0 00-2.262.72 3.056 3.056 0 00-2.028-.778 3.04 3.04 0 00-3.039 2.826c-.097.65.073 1.377.513 2.191h-7.814a3.833 3.833 0 00-3.83 3.83V42.17a3.833 3.833 0 003.83 3.83h19.552a3.833 3.833 0 003.83-3.83V25.602a3.835 3.835 0 00-2.982-3.733c.377-.31 1.34-1.128 2.284-2.146zm-5.313.709a25.62 25.62 0 001.47 1.341h-1.944c.25-.474.408-.92.474-1.341zm-8.284-.596a.88.88 0 00.012-.104 1.24 1.24 0 011.241-1.173h.014c.511.006.974.331 1.152.81a.902.902 0 001.683.02 1.252 1.252 0 011.157-.785h.013a1.247 1.247 0 011.227 1.165.858.858 0 00.01.087c.076.475-.278 1.172-.835 1.917h-4.803c-.592-.786-.948-1.492-.87-1.937zm3.461 3.74v20.62h-5.544v-20.62h5.544zM10.951 42.172v-16.57c0-1.117.91-2.025 2.026-2.025h5.2v20.62h-5.2a2.028 2.028 0 01-2.026-2.026zm23.604-16.569v16.57a2.028 2.028 0 01-2.026 2.025h-5.2v-20.62h5.2c1.117 0 2.026.908 2.026 2.025zm-1.898-5.48c-1.71-1.488-3.745-3.763-3.556-4.85a.88.88 0 00.011-.103 1.386 1.386 0 011.387-1.31h.015c.57.006 1.088.37 1.287.905.13.349.463.582.835.586h.01a.902.902 0 00.838-.568 1.4 1.4 0 011.292-.877h.015c.724.008 1.326.58 1.37 1.302.002.03.006.059.01.088.181 1.125-1.826 3.37-3.514 4.827z" fill="#fff"/><path d="M42.397 3.709a3.374 3.374 0 00-3.315-3.11 3.371 3.371 0 00-2.307.886 3.376 3.376 0 00-2.324-.937 3.355 3.355 0 00-3.353 3.123c-.201 1.325.604 2.947 2.459 4.956a26.972 26.972 0 002.644 2.482.9.9 0 001.123.004 25.726 25.726 0 002.623-2.441c1.842-1.988 2.644-3.612 2.45-4.963zm-5.628 5.525c-1.856-1.608-4.093-4.107-3.886-5.308a.863.863 0 00.012-.104 1.555 1.555 0 011.556-1.47h.018c.64.006 1.22.415 1.444 1.015a.902.902 0 001.683.018 1.572 1.572 0 011.466-.983c.812.01 1.488.65 1.538 1.46a.92.92 0 00.01.088c.202 1.26-1.97 3.686-3.84 5.284z" fill="#E32040"/><path d="M28.068 12.2a2.65 2.65 0 001.332-1.548 2.65 2.65 0 00-.153-2.036l-1.68-3.33a2.671 2.671 0 00-3.585-1.18l-1.19.6C22.686 2.7 21.621.946 19.88.276c-2.507-.964-5.48.675-6.625 3.653a6.816 6.816 0 00-.417 1.72c-.23.02-.457.084-.67.193l-1.956 1.002a1.804 1.804 0 00-.494.374 6.76 6.76 0 00-1.636-.712c-1.453-.417-2.96-.345-4.244.202-1.349.575-2.294 1.6-2.663 2.885-.526 1.832.276 3.781 1.88 5.074l-1.28.646a2.65 2.65 0 00-1.332 1.548 2.65 2.65 0 00.153 2.036l1.68 3.33a2.671 2.671 0 003.585 1.18L28.068 12.2zM14.939 4.577c.648-1.684 2.063-2.777 3.423-2.777.296 0 .59.052.871.16 1.285.494 1.948 2.017 1.728 3.67l-5.458 2.755-.889-1.735a4.84 4.84 0 01.325-2.073zm-1.225 12.847l-2.544-4.832 4.95-2.498 2.544 4.832-4.95 2.498zm-.717-9.976l.895 1.75-1.967.993-.89-1.742 1.962-1.001zM2.91 10.09c.216-.753.797-1.365 1.636-1.723a4.225 4.225 0 011.658-.326c.454 0 .92.066 1.381.198.7.201 1.313.535 1.805.95.013.03.025.059.04.087l.885 1.728L4.9 13.737c-1.517-.81-2.379-2.293-1.99-3.647zm2.14 11.707a.865.865 0 01-1.162-.382l-1.681-3.33a.859.859 0 01-.05-.66.858.858 0 01.432-.502l6.97-3.518 2.545 4.832-7.055 3.56zM27.254 10.59l-6.98 3.523L17.73 9.28l7.064-3.565a.869.869 0 011.161.382l1.681 3.33a.866.866 0 01-.382 1.162zM13.426 32.873a.902.902 0 01-.902-.902v-1.788a.902.902 0 011.804 0v1.788a.902.902 0 01-.902.902zm0-4.953a.902.902 0 01-.902-.902v-.544a.902.902 0 011.804 0v.544a.902.902 0 01-.902.902z" fill="#fff"/></g><defs><clipPath id="clip0"><path fill="#fff" d="M0 0h46v46H0z"/></clipPath></defs></svg>