<svg width="505" height="544" fill="none" xmlns="http://www.w3.org/2000/svg"><g filter="url(#filter0_d)"><circle cx="258" cy="269.773" r="97" fill="#E32040"/></g><mask id="a" maskUnits="userSpaceOnUse" x="0" y="0" width="505" height="544"><path d="M154.122.909l123.895 46.059L124.695 459.39.8 413.331 154.122.909zM380.617 85.11l123.895 46.059L351.19 543.592l-123.895-46.059L380.617 85.11z" fill="#917878"/></mask><g filter="url(#filter1_d)" mask="url(#a)"><circle cx="258" cy="269.773" r="180.5" stroke="#fff"/></g><mask id="b" maskUnits="userSpaceOnUse" x="38" y="93" width="440" height="363"><path d="M38 455.773v-128h440v128H38zm0-234v-128h440v128H38z" fill="#917878"/></mask><g filter="url(#filter2_d)" mask="url(#b)"><circle cx="258" cy="270" r="151.5" stroke="#E32040"/></g><defs><filter id="filter0_d" x="11" y="22.773" width="494" height="494" filterUnits="userSpaceOnUse" color-interpolation-filters="sRGB"><feFlood flood-opacity="0" result="BackgroundImageFix"/><feColorMatrix in="SourceAlpha" values="0 0 0 0 0 0 0 0 0 0 0 0 0 0 0 0 0 0 127 0"/><feOffset/><feGaussianBlur stdDeviation="75"/><feColorMatrix values="0 0 0 0 0.890196 0 0 0 0 0.12549 0 0 0 0 0.25098 0 0 0 0.6 0"/><feBlend in2="BackgroundImageFix" result="effect1_dropShadow"/><feBlend in="SourceGraphic" in2="effect1_dropShadow" result="shape"/></filter><filter id="filter1_d" x="67" y="78.773" width="382" height="382" filterUnits="userSpaceOnUse" color-interpolation-filters="sRGB"><feFlood flood-opacity="0" result="BackgroundImageFix"/><feColorMatrix in="SourceAlpha" values="0 0 0 0 0 0 0 0 0 0 0 0 0 0 0 0 0 0 127 0"/><feOffset/><feGaussianBlur stdDeviation="5"/><feColorMatrix values="0 0 0 0 1 0 0 0 0 1 0 0 0 0 1 0 0 0 0.3 0"/><feBlend in2="BackgroundImageFix" result="effect1_dropShadow"/><feBlend in="SourceGraphic" in2="effect1_dropShadow" result="shape"/></filter><filter id="filter2_d" x="96" y="108" width="324" height="324" filterUnits="userSpaceOnUse" color-interpolation-filters="sRGB"><feFlood flood-opacity="0" result="BackgroundImageFix"/><feColorMatrix in="SourceAlpha" values="0 0 0 0 0 0 0 0 0 0 0 0 0 0 0 0 0 0 127 0"/><feOffset/><feGaussianBlur stdDeviation="5"/><feColorMatrix values="0 0 0 0 0.890196 0 0 0 0 0.12549 0 0 0 0 0.25098 0 0 0 1 0"/><feBlend in2="BackgroundImageFix" result="effect1_dropShadow"/><feBlend in="SourceGraphic" in2="effect1_dropShadow" result="shape"/></filter></defs></svg>