<svg width="69" height="13" fill="none" xmlns="http://www.w3.org/2000/svg"><path d="M0 12.82V0h1.77v11.384h6.14v1.436H0zm19.25-4.83c0 1.592-.446 2.825-1.338 3.7-.879.873-2.072 1.31-3.58 1.31-.932 0-1.765-.191-2.5-.575a4.327 4.327 0 01-1.711-1.705c-.42-.755-.63-1.664-.63-2.73 0-1.592.44-2.819 1.319-3.68.878-.862 2.072-1.293 3.58-1.293.958 0 1.797.197 2.519.592a4.055 4.055 0 011.712 1.688c.42.73.63 1.628.63 2.693zm-7.968 0c0 1.138.242 2.041.728 2.712.498.658 1.285.987 2.36.987 1.063 0 1.844-.329 2.342-.987.498-.67.748-1.574.748-2.712 0-1.137-.25-2.029-.748-2.675-.498-.646-1.285-.97-2.36-.97-1.077 0-1.857.324-2.342.97-.486.646-.728 1.538-.728 2.675zm12.649 4.83l-3.994-9.624h1.85L24.03 8.87c.105.264.216.557.334.88.118.323.223.634.315.934.092.287.158.532.197.736h.079c.052-.204.124-.455.216-.754.105-.3.216-.61.335-.934.13-.323.242-.61.334-.862l2.243-5.674h1.85l-4.014 9.624H23.93zm11.743-9.803c.905 0 1.679.18 2.321.538.656.36 1.155.868 1.496 1.526.354.647.53 1.407.53 2.28v.953h-7.22c.026 1.089.328 1.92.905 2.495.59.563 1.41.844 2.46.844a8.7 8.7 0 001.77-.161c.525-.12 1.063-.288 1.614-.503v1.382a8.285 8.285 0 01-1.594.467c-.525.108-1.148.162-1.87.162-.996 0-1.881-.185-2.655-.557a4.16 4.16 0 01-1.79-1.652c-.42-.742-.63-1.646-.63-2.71 0-1.054.19-1.958.57-2.712.394-.754.938-1.335 1.633-1.742.709-.407 1.528-.61 2.46-.61zm-.02 1.292c-.826 0-1.482.246-1.968.737-.472.478-.754 1.149-.846 2.01h5.372c-.013-.813-.223-1.472-.63-1.975-.407-.514-1.05-.772-1.928-.772zm6.167 4.4V7.308h4.761v1.4h-4.76zm17.732 4.111h-2.085L52.49 6.698l-1.436 1.149v4.973h-1.77V0h1.77v6.32a199596781115436.62 199596781115436.62 0 002.42-2.442L57.27 0h2.066l-5.568 5.584 5.784 7.236zm5.669-9.785c1.286 0 2.237.257 2.853.772.617.514.925 1.334.925 2.46v6.553h-1.26l-.334-1.364h-.078c-.46.527-.945.915-1.456 1.167-.499.251-1.194.377-2.086.377-.957 0-1.75-.227-2.38-.682-.63-.467-.945-1.191-.945-2.173 0-.958.413-1.694 1.24-2.209.826-.526 2.098-.814 3.817-.861l1.79-.054v-.575c0-.802-.19-1.359-.57-1.67-.381-.311-.919-.467-1.614-.467a5.25 5.25 0 00-1.574.234c-.498.143-.964.311-1.397.503l-.531-1.186a8.03 8.03 0 011.633-.574 7.616 7.616 0 011.967-.251zm.512 5.135c-1.312.048-2.223.24-2.735.574-.498.336-.748.808-.748 1.419 0 .539.178.934.532 1.185.367.251.833.377 1.397.377.892 0 1.633-.221 2.223-.664.59-.455.885-1.15.885-2.083v-.862l-1.554.054z" fill="#fff"/></svg>