<svg width="25" height="25" fill="none" xmlns="http://www.w3.org/2000/svg"><path d="M3.126 6.821a.195.195 0 01.194-.18h3.516v-.977A5.67 5.67 0 0112.5 0a5.67 5.67 0 015.664 5.664v.977h3.516c.102 0 .187.078.194.18l1.368 17.969a.195.195 0 01-.195.21H1.953a.195.195 0 01-.195-.21L3.126 6.821zm13.476-1.157A4.106 4.106 0 0012.5 1.563a4.106 4.106 0 00-4.102 4.101v.977h8.204v-.977zm.78 6.445a1.955 1.955 0 001.954-1.953c0-.78-.39-1.482-1.172-1.79v1.79a.782.782 0 01-1.562 0V8.367c-.782.309-1.172 1.016-1.172 1.79 0 1.076.876 1.952 1.953 1.952zm-9.765 0a1.955 1.955 0 001.953-1.953c0-.78-.39-1.482-1.172-1.79v1.79a.782.782 0 01-1.562 0V8.367c-.781.309-1.172 1.016-1.172 1.79 0 1.076.876 1.952 1.953 1.952z" fill="#fff"/></svg>