<svg width="19" height="19" fill="none" xmlns="http://www.w3.org/2000/svg"><g clip-path="url(#clip0)"><path d="M16.245 2.73A9.612 9.612 0 009.535 0C2.277 0-2.281 7.865 1.344 14.122L0 19l5.015-1.308c2.185 1.18 3.975 1.076 4.525 1.146 8.418 0 12.608-10.184 6.693-16.077l.012-.03z" fill="#ECEFF1"/><path d="M9.553 17.22l-.005-.001h-.012c-2.52 0-4.129-1.193-4.287-1.262l-2.969.772.796-2.886-.19-.297a7.813 7.813 0 01-1.2-4.164c0-6.961 8.507-10.442 13.43-5.522 4.91 4.869 1.462 13.36-5.563 13.36z" fill="#4CAF50"/><path d="M13.86 11.326l-.007.06c-.239-.119-1.4-.687-1.615-.765-.486-.18-.349-.029-1.28 1.039-.139.154-.277.166-.512.059-.237-.119-1-.368-1.902-1.176-.703-.629-1.175-1.4-1.314-1.638-.232-.4.253-.458.695-1.294.079-.166.038-.297-.02-.415-.06-.119-.532-1.282-.73-1.746-.19-.463-.386-.404-.532-.404-.456-.04-.79-.033-1.083.272-1.278 1.405-.956 2.854.138 4.394 2.148 2.812 3.293 3.33 5.386 4.049.566.18 1.08.154 1.489.096.454-.072 1.398-.571 1.596-1.13.201-.558.201-1.02.142-1.127-.059-.107-.214-.167-.451-.274z" fill="#FAFAFA"/></g><defs><clipPath id="clip0"><path fill="#fff" d="M0 0h19v19H0z"/></clipPath></defs></svg>