<svg width="37" height="34" viewBox="0 0 37 34" fill="none" xmlns="http://www.w3.org/2000/svg">
<path d="M13.9746 19.9577C13.9746 24.8662 17.9659 28.8575 22.8743 28.8575C27.7827 28.8575 31.774 24.8662 31.774 19.9577C31.774 15.0496 27.7827 11.058 22.8743 11.058C17.9659 11.058 13.9746 15.0496 13.9746 19.9577ZM16.462 19.9577C16.462 16.4227 19.339 13.5454 22.8743 13.5454C26.4096 13.5454 29.2866 16.4227 29.2866 19.9577C29.2866 23.493 26.4096 26.37 22.8743 26.37C19.339 26.37 16.462 23.493 16.462 19.9577Z" fill="#E32040" stroke="#E32040" stroke-width="0.3"/>
<path d="M29.1652 24.4876L29.1651 24.4875C28.6791 24.0018 27.8915 24.0017 27.4056 24.4876C26.9198 24.9734 26.9198 25.761 27.4056 26.2468C27.4056 26.2468 27.4056 26.2468 27.4056 26.2468L34.0258 32.8672C34.0258 32.8673 34.0259 32.8673 34.0259 32.8673C34.2685 33.1114 34.5872 33.2322 34.9052 33.2322C35.2234 33.2322 35.5419 33.1113 35.7857 32.8676C36.2715 32.3817 36.2714 31.5941 35.7857 31.1081L35.7857 31.1081L29.1652 24.4876Z" fill="#E32040" stroke="#E32040" stroke-width="0.3"/>
<path d="M33.8568 19.945L33.8569 19.9451C34.4483 20.2994 35.2116 20.1076 35.5632 19.5184C35.9519 18.8696 36.1489 18.1592 36.1489 17.4057V5.01038C36.1489 2.71527 34.2836 0.85 31.9885 0.85H5.01038C2.71527 0.85 0.85 2.71527 0.85 5.01038V17.4057C0.85 19.7008 2.71527 21.5661 5.01038 21.5661H11.2517C11.9409 21.5661 12.481 21.0064 12.481 20.3224C12.481 19.6332 11.9066 19.0787 11.2226 19.0787H5.01038C4.08843 19.0787 3.33743 18.3277 3.33743 17.4057V5.01038C3.33743 4.08843 4.08843 3.33743 5.01038 3.33743H31.9885C32.9105 3.33743 33.6615 4.08843 33.6615 5.01038V17.4057C33.6615 17.7039 33.5842 17.9834 33.4306 18.2384L33.4306 18.2384C33.0756 18.8289 33.2683 19.5917 33.8568 19.945Z" fill="#E32040" stroke="#E32040" stroke-width="0.3"/>
</svg>
