<svg width="29" height="37" viewBox="0 0 29 37" fill="none" xmlns="http://www.w3.org/2000/svg">
<path d="M28.0565 7.14716L14.9678 0.163452C14.5543 -0.0571739 14.0571 -0.0543555 13.647 0.171329L0.928296 7.15504C0.484299 7.39879 0.208679 7.86497 0.208679 8.37141V18.2226C0.208679 26.0157 4.82072 33.0507 11.9727 36.1513L13.7302 36.8913C13.9023 36.9639 14.0854 37 14.2686 37C14.4467 37 14.6257 36.9657 14.7935 36.8969L16.8285 36.0644C16.8318 36.063 16.835 36.0616 16.8382 36.0607C24.1493 33.0055 28.8409 25.9463 28.791 18.0839V8.37141C28.791 7.85897 28.5089 7.38809 28.0565 7.14716ZM26.016 18.0926C26.0586 24.8316 22.039 30.8779 15.7736 33.4984L14.276 34.1108L13.0629 33.6001C6.94033 30.945 2.98366 24.9094 2.98366 18.2226V9.19277L14.3241 2.96525L26.016 9.2039V18.0926Z" fill="#E32040"/>
<path d="M8.68573 18.5L13.2526 23.2571L21.3714 14.8" stroke="#E32040" stroke-width="2"/>
</svg>
