<svg width="34" height="34" viewBox="0 0 34 34" fill="none" xmlns="http://www.w3.org/2000/svg">
<g clip-path="url(#clip0)">
<path d="M33.9934 8.38528C33.9536 8.01958 33.7264 7.69592 33.3867 7.53741L17.4492 0.0999033C17.1644 -0.0329756 16.8354 -0.0329756 16.5506 0.0999033L0.613129 7.53741C0.273527 7.69592 0.0462852 8.01951 0.00650781 8.38528C0.00564453 8.39292 0 8.49465 0 8.50023V26.5627C0 26.9972 0.264496 27.3879 0.667914 27.5492L16.6054 33.9242C16.732 33.9749 16.8661 34.0002 17 34.0002C17.1339 34.0002 17.2679 33.9749 17.3946 33.9242L33.3321 27.5492C33.7355 27.3879 34 26.9972 34 26.5627V8.50023C34 8.49465 33.9942 8.39285 33.9934 8.38528ZM17 2.2352L30.2642 8.42519L25.1567 10.4682L11.6428 4.73526L17 2.2352ZM9.05184 5.94439L22.3561 11.5885L17 13.7309L3.73575 8.42519L9.05184 5.94439ZM2.125 10.0695L15.9375 15.5945V31.3684L2.125 25.8434V10.0695ZM18.0625 31.3684V15.5945L31.875 10.0695V25.8434L18.0625 31.3684Z" fill="#E32040"/>
</g>
<defs>
<clipPath id="clip0">
<rect width="34" height="34" fill="white"/>
</clipPath>
</defs>
</svg>
