<svg width="32" height="34" viewBox="0 0 32 34" fill="none" xmlns="http://www.w3.org/2000/svg">
<path d="M15.7803 9.2959C12.6554 9.2959 11.2203 11.148 11.2203 12.3981C11.2203 13.301 11.9841 13.7177 12.6091 13.7177C13.859 13.7177 13.3498 11.9351 15.7108 11.9351C16.8682 11.9351 17.7941 12.4445 17.7941 13.5094C17.7941 14.7595 16.4979 15.4772 15.734 16.1254C15.0628 16.7042 14.1832 17.6534 14.1832 19.6443C14.1832 20.8481 14.5072 21.1953 15.4562 21.1953C16.5904 21.1953 16.8219 20.6861 16.8219 20.2462C16.8219 19.0423 16.8451 18.3478 18.1181 17.3524C18.7431 16.8662 20.7106 15.2919 20.7106 13.1158C20.7106 10.9396 18.7431 9.29596 15.7803 9.2959Z" fill="#E32040"/>
<path d="M15.4793 22.7927C14.5072 22.7927 13.7202 23.603 13.7202 24.5753C13.7202 25.5245 14.484 26.3579 15.4793 26.3579C16.4746 26.3579 17.2617 25.5245 17.2617 24.5753C17.2617 23.603 16.4515 22.7927 15.4793 22.7927Z" fill="#E32040"/>
<path d="M28.7311 6.4942L18.7364 0.730086C17.0486 -0.243362 14.9515 -0.243362 13.2636 0.730086L3.26892 6.4942C1.57788 7.46944 0.527405 9.28804 0.527405 11.2404V22.7597C0.527405 24.7119 1.57788 26.5306 3.26892 27.5058L13.2636 33.27C14.9511 34.2433 17.0483 34.2435 18.7364 33.27L28.7311 27.5058C30.4222 26.5305 31.4727 24.7119 31.4727 22.7596V11.2404C31.4727 9.28804 30.4222 7.46944 28.7311 6.4942ZM28.8164 22.7596C28.8164 23.7652 28.2753 24.702 27.4042 25.2043L17.4095 30.9684C16.54 31.4698 15.4599 31.4698 14.5905 30.9684L4.59584 25.2044C3.72473 24.702 3.18365 23.7652 3.18365 22.7596V11.2404C3.18365 10.2347 3.72473 9.298 4.59584 8.79564L14.5906 3.03152C15.4601 2.53009 16.5401 2.53016 17.4096 3.03152L27.4043 8.79564C28.2753 9.29794 28.8164 10.2347 28.8164 11.2404V22.7596Z" fill="#E32040"/>
</svg>
