<svg width="16" height="17" fill="none" xmlns="http://www.w3.org/2000/svg"><g clip-path="url(#clip0)" fill="#fff"><path d="M8.667.75v7.5c0 .415-.299.75-.667.75-.368 0-.667-.335-.667-.75V.75C7.333.335 7.632 0 8 0c.368 0 .667.335.667.75zm5.666 0v7.5c0 .415-.298.75-.666.75-.368 0-.667-.335-.667-.75V.75c0-.415.299-.75.667-.75.368 0 .666.335.666.75zm-12 0v7.5c0 .415-.298.75-.666.75C1.299 9 1 8.665 1 8.25V.75c0-.415.299-.75.667-.75.368 0 .666.335.666.75zM12.667 11.5v1.8H3.333v-1.8a.502.502 0 00-.84-.366L.159 13.301a.502.502 0 000 .732L2.493 16.2a.5.5 0 00.84-.366v-2.167h9.334v2.167a.502.502 0 00.84.367l2.334-2.167a.504.504 0 000-.733l-2.334-2.167a.502.502 0 00-.84.367z"/></g><defs><clipPath id="clip0"><path fill="#fff" transform="rotate(-90 8.5 8.5)" d="M0 0h17v16H0z"/></clipPath></defs></svg>