<svg width="19" height="19" fill="none" xmlns="http://www.w3.org/2000/svg"><path d="M16.218 2.782A9.438 9.438 0 009.5 0a9.438 9.438 0 00-6.718 2.782A9.438 9.438 0 000 9.5c0 2.537.988 4.923 2.782 6.718A9.437 9.437 0 009.5 19a9.437 9.437 0 006.718-2.782A9.437 9.437 0 0019 9.5a9.437 9.437 0 00-2.782-6.718zM9.5 17.882c-4.622 0-8.382-3.76-8.382-8.382S4.878 1.118 9.5 1.118s8.382 3.76 8.382 8.382-3.76 8.382-8.382 8.382z" fill="#fff"/><path d="M11 5.333h2.667V8H15V4h-4v1.333zM5.333 11H4v4h4v-1.333H5.333V11zm4.165-2.29l.79-.79.79.79-.79.79-.79-.79zm-1.581 1.58l.79-.79.79.79-.79.79-.79-.79z" fill="#fff"/></svg>