<svg width="16" height="17" viewBox="0 0 16 17" fill="none" xmlns="http://www.w3.org/2000/svg">
<g clip-path="url(#clip0)">
<path d="M8.66668 0.75L8.66668 8.25C8.66668 8.66475 8.36801 9 8.00001 9C7.63201 9 7.33334 8.66475 7.33334 8.25L7.33334 0.75C7.33334 0.33525 7.63201 -1.30551e-08 8.00001 -2.91409e-08C8.36801 -4.52267e-08 8.66668 0.33525 8.66668 0.75Z" fill="white"/>
<path d="M14.3333 0.75L14.3333 8.25C14.3333 8.66475 14.0347 9 13.6667 9C13.2987 9 13 8.66475 13 8.25L13 0.75C13 0.33525 13.2987 -1.30551e-08 13.6667 -2.91409e-08C14.0347 -4.52267e-08 14.3333 0.33525 14.3333 0.75Z" fill="white"/>
<path d="M2.33333 0.750001L2.33333 8.25C2.33333 8.66475 2.03467 9 1.66667 9C1.29867 9 1 8.66475 1 8.25L1 0.750001C1 0.335251 1.29867 9.40619e-07 1.66667 9.24533e-07C2.03467 9.08448e-07 2.33333 0.335251 2.33333 0.750001Z" fill="white"/>
<path d="M12.6667 11.5007L12.6667 13.3007L3.33333 13.3007L3.33333 11.5007C3.33333 11.302 3.21533 11.122 3.03333 11.042C2.96867 11.014 2.90133 11.0007 2.83333 11.0007C2.70933 11.0007 2.58733 11.0467 2.49267 11.134L0.159333 13.3007C0.0579999 13.3953 -1.22653e-07 13.528 -1.16563e-07 13.6673C-1.10472e-07 13.8067 0.0579999 13.9387 0.159333 14.0333L2.49267 16.2C2.63867 16.3353 2.85067 16.3707 3.03333 16.292C3.21533 16.2127 3.33333 16.0327 3.33333 15.834L3.33333 13.6673L12.6667 13.6673L12.6667 15.834C12.6667 16.0327 12.7847 16.2127 12.9667 16.2927C13.1487 16.3713 13.3613 16.336 13.5073 16.2007L15.8407 14.034C15.942 13.9387 16 13.806 16 13.6673C16 13.5287 15.942 13.3953 15.8407 13.3007L13.5073 11.134C13.4127 11.0467 13.2907 11.0007 13.1667 11.0007C13.0987 11.0007 13.0313 11.0147 12.9667 11.042C12.7847 11.1213 12.6667 11.3013 12.6667 11.5007Z" fill="white"/>
</g>
<defs>
<clipPath id="clip0">
<rect width="17" height="16" fill="white" transform="translate(0 17) rotate(-90)"/>
</clipPath>
</defs>
</svg>
