<svg width="19" height="19" viewBox="0 0 19 19" fill="none" xmlns="http://www.w3.org/2000/svg">
<path d="M16.2175 2.78249C14.4232 0.988149 12.0375 0 9.5 0C6.96246 0 4.5768 0.988149 2.78249 2.78249C0.988149 4.5768 0 6.96246 0 9.5C0 12.0375 0.988149 14.4232 2.78249 16.2175C4.5768 18.0119 6.96246 19 9.5 19C12.0375 19 14.4232 18.0119 16.2175 16.2175C18.0119 14.4232 19 12.0375 19 9.5C19 6.96246 18.0119 4.5768 16.2175 2.78249ZM9.5 17.8824C4.87797 17.8824 1.11765 14.122 1.11765 9.5C1.11765 4.87797 4.87797 1.11765 9.5 1.11765C14.122 1.11765 17.8824 4.87797 17.8824 9.5C17.8824 14.122 14.122 17.8824 9.5 17.8824Z" fill="white"/>
<path d="M11 5.33333H13.6667V8H15V4H11V5.33333Z" fill="white"/>
<path d="M5.33333 11H4V15H8V13.6667H5.33333V11Z" fill="white"/>
<path d="M9.49811 8.71021L10.2883 7.92L11.0785 8.71018L10.2883 9.50038L9.49811 8.71021Z" fill="white"/>
<path d="M7.91742 10.2905L8.70762 9.50033L9.4978 10.2905L8.70759 11.0807L7.91742 10.2905Z" fill="white"/>
</svg>
