<svg width="15" height="14" viewBox="0 0 15 14" fill="none" xmlns="http://www.w3.org/2000/svg">
<g clip-path="url(#clip0)">
<path d="M14.6463 5.39368C14.5981 5.24518 14.4698 5.13696 14.3153 5.11453L9.97523 4.48386L8.03425 0.551128C7.96518 0.41113 7.82259 0.32251 7.66648 0.32251C7.51035 0.32251 7.36778 0.41113 7.29868 0.551128L5.35763 4.48386L1.01767 5.11453C0.863209 5.13696 0.734832 5.24518 0.686598 5.39366C0.638337 5.54216 0.678586 5.70515 0.790394 5.81412L3.93074 8.87533L3.18951 13.1979C3.1631 13.3518 3.22637 13.5072 3.35267 13.599C3.42412 13.6509 3.50874 13.6773 3.59378 13.6773C3.65908 13.6773 3.72459 13.6618 3.78458 13.6302L7.66646 11.5894L11.5482 13.6302C11.6864 13.7028 11.8538 13.6908 11.9801 13.599C12.1064 13.5072 12.1697 13.3517 12.1433 13.1978L11.4018 8.87533L14.5425 5.81409C14.6543 5.70515 14.6946 5.54216 14.6463 5.39368Z" fill="white"/>
</g>
<defs>
<clipPath id="clip0">
<rect width="13.9999" height="13.9999" fill="white" transform="translate(0.666504)"/>
</clipPath>
</defs>
</svg>
