<svg width="15" height="14" viewBox="0 0 15 14" fill="none" xmlns="http://www.w3.org/2000/svg">
<path opacity="0.65" d="M9.52653 4.70514L9.64286 4.94086L9.90299 4.97866L14.0628 5.58315L11.0525 8.51727L10.8643 8.70076L10.9087 8.95986L11.6194 13.1029L7.8988 11.1468L7.66612 11.0245L7.43345 11.1468L3.71275 13.1029L4.42321 8.95983L4.46763 8.70077L4.27941 8.51729L1.26943 5.58315L5.4292 4.97866L5.68932 4.94086L5.80565 4.70515L7.66613 0.935685L9.52653 4.70514ZM14.1932 5.45604L14.1931 5.45612C14.1932 5.45608 14.1932 5.45605 14.1932 5.45601L14.1932 5.45604ZM3.68199 13.2823C3.68198 13.2823 3.68198 13.2824 3.68198 13.2824L3.68199 13.2823ZM1.13903 5.45604C1.13907 5.45608 1.13911 5.45612 1.13915 5.45616L1.13907 5.45608L1.13903 5.45604ZM7.58552 0.77235L7.58555 0.772417L7.58552 0.77235Z" stroke="#6A6A6A"/>
</svg>
