<svg width="29" height="37" fill="none" xmlns="http://www.w3.org/2000/svg"><path d="M28.056 7.147L14.969.163a1.387 1.387 0 00-1.321.008L.928 7.155c-.444.244-.72.71-.72 1.216v9.852A19.523 19.523 0 0011.974 36.15l1.757.74a1.385 1.385 0 001.063.006l2.035-.833.01-.003c7.311-3.056 12.003-10.115 11.953-17.977V8.37c0-.512-.282-.983-.735-1.224zm-2.04 10.946c.043 6.739-3.977 12.785-10.242 15.405l-1.498.613-1.213-.51a16.746 16.746 0 01-10.08-15.378v-9.03l11.341-6.228 11.692 6.239v8.889z" fill="#E32040"/><path d="M8.686 18.5l4.567 4.757L21.37 14.8" stroke="#E32040" stroke-width="2"/></svg>