<svg width="34" height="34" fill="none" xmlns="http://www.w3.org/2000/svg"><g clip-path="url(#clip0)"><path d="M33.993 8.385a1.062 1.062 0 00-.606-.848L17.449.1a1.063 1.063 0 00-.898 0L.613 7.537A1.062 1.062 0 000 8.5v18.063c0 .434.264.825.668.986l15.937 6.375a1.062 1.062 0 00.79 0l15.937-6.375c.404-.161.668-.552.668-.986V8.5l-.007-.115zM17 2.235l13.264 6.19-5.107 2.043-13.514-5.733L17 2.235zm-7.948 3.71l13.304 5.643L17 13.732 3.736 8.425l5.316-2.48zm-6.927 4.124l13.813 5.525v15.774L2.124 25.843V10.07zm15.938 21.3V15.594l13.812-5.526v15.774l-13.813 5.525z" fill="#E32040"/></g><defs><clipPath id="clip0"><path fill="#fff" d="M0 0h34v34H0z"/></clipPath></defs></svg>