<svg width="37" height="34" fill="none" xmlns="http://www.w3.org/2000/svg"><path d="M13.975 19.958c0 4.908 3.99 8.9 8.9 8.9 4.908 0 8.899-3.992 8.899-8.9s-3.991-8.9-8.9-8.9c-4.908 0-8.9 3.992-8.9 8.9zm2.487 0a6.42 6.42 0 016.412-6.413 6.42 6.42 0 016.413 6.413 6.42 6.42 0 01-6.413 6.412 6.42 6.42 0 01-6.412-6.412z" fill="#E32040" stroke="#E32040" stroke-width=".3"/><path d="M29.165 24.488h0a1.244 1.244 0 00-1.76 1.759s0 0 0 0l6.62 6.62s0 0 0 0a1.24 1.24 0 001.76 0 1.244 1.244 0 000-1.759h0l-6.62-6.62zm4.692-4.543h0a1.242 1.242 0 001.706-.427 4.05 4.05 0 00.586-2.112V5.01a4.164 4.164 0 00-4.16-4.16H5.01A4.164 4.164 0 00.85 5.01v12.396a4.164 4.164 0 004.16 4.16h6.242c.689 0 1.229-.56 1.229-1.244 0-.689-.574-1.243-1.258-1.243H5.01a1.676 1.676 0 01-1.673-1.673V5.01c0-.922.751-1.673 1.673-1.673h26.978c.922 0 1.673.751 1.673 1.673v12.396c0 .298-.077.577-.23.832h0a1.243 1.243 0 00.426 1.707z" fill="#E32040" stroke="#E32040" stroke-width=".3"/></svg>