<svg width="32" height="34" fill="none" xmlns="http://www.w3.org/2000/svg"><path d="M15.78 9.296c-3.125 0-4.56 1.852-4.56 3.102 0 .903.764 1.32 1.39 1.32 1.249 0 .74-1.783 3.1-1.783 1.158 0 2.084.51 2.084 1.574 0 1.25-1.296 1.968-2.06 2.616-.671.58-1.55 1.528-1.55 3.52 0 1.203.323 1.55 1.272 1.55 1.134 0 1.366-.509 1.366-.949 0-1.204.023-1.898 1.296-2.894.625-.486 2.593-2.06 2.593-4.236 0-2.176-1.968-3.82-4.93-3.82zm-.3 13.497c-.973 0-1.76.81-1.76 1.782 0 .95.764 1.783 1.76 1.783.995 0 1.782-.834 1.782-1.783 0-.972-.81-1.782-1.783-1.782z" fill="#E32040"/><path d="M28.731 6.494L18.736.73a5.493 5.493 0 00-5.472 0L3.269 6.494A5.494 5.494 0 00.527 11.24v11.52c0 1.952 1.05 3.77 2.742 4.746l9.995 5.764a5.493 5.493 0 005.472 0l9.995-5.764a5.494 5.494 0 002.742-4.746V11.24a5.494 5.494 0 00-2.742-4.746zm.085 16.266a2.83 2.83 0 01-1.412 2.444l-9.994 5.764a2.83 2.83 0 01-2.82 0l-9.994-5.764a2.83 2.83 0 01-1.412-2.444V11.24a2.83 2.83 0 011.412-2.444l9.995-5.764a2.83 2.83 0 012.819 0l9.994 5.764a2.83 2.83 0 011.412 2.444v11.52z" fill="#E32040"/></svg>